<?xml version="1.0" encoding="UTF-8" standalone="no"?>
<!DOCTYPE svg PUBLIC "-//W3C//DTD SVG 1.1//EN"
 "http://www.w3.org/Graphics/SVG/1.1/DTD/svg11.dtd">
<!-- Generated by graphviz version 3.0.0 (20220315.2325)
 -->
<!-- Title: G Pages: 1 -->
<svg width="453pt" height="44pt"
 viewBox="0.00 0.00 452.68 44.00" xmlns="http://www.w3.org/2000/svg" xmlns:xlink="http://www.w3.org/1999/xlink">
<g id="graph0" class="graph" transform="scale(1 1) rotate(0) translate(4 40)">
<title>G</title>
<polygon fill="white" stroke="transparent" points="-4,4 -4,-40 448.68,-40 448.68,4 -4,4"/>
<!-- x -->
<g id="node1" class="node">
<title>x</title>
<ellipse fill="none" stroke="black" cx="27" cy="-18" rx="27" ry="18"/>
<text text-anchor="middle" x="27" y="-14.3" font-family="Times,serif" font-size="14.00">x</text>
</g>
<!-- x*w, &#160;&#160;&#160;bias=True -->
<g id="node2" class="node">
<title>x*w, &#160;&#160;&#160;bias=True</title>
<ellipse fill="none" stroke="black" cx="199.34" cy="-18" rx="90.18" ry="18"/>
<text text-anchor="middle" x="199.34" y="-14.3" font-family="Times,serif" font-size="14.00">x*w, &#160;&#160;&#160;bias=True</text>
</g>
<!-- x&#45;&gt;x*w, &#160;&#160;&#160;bias=True -->
<g id="edge1" class="edge">
<title>x&#45;&gt;x*w, &#160;&#160;&#160;bias=True</title>
<path fill="none" stroke="black" d="M54.24,-18C66.61,-18 82.22,-18 98.58,-18"/>
<polygon fill="black" stroke="black" points="98.84,-21.5 108.84,-18 98.84,-14.5 98.84,-21.5"/>
<text text-anchor="middle" x="81.5" y="-21.8" font-family="Times,serif" font-size="14.00">*w</text>
</g>
<!-- y -->
<g id="node3" class="node">
<title>y</title>
<ellipse fill="none" stroke="black" cx="417.68" cy="-18" rx="27" ry="18"/>
<text text-anchor="middle" x="417.68" y="-14.3" font-family="Times,serif" font-size="14.00">y</text>
</g>
<!-- x*w, &#160;&#160;&#160;bias=True&#45;&gt;y -->
<g id="edge2" class="edge">
<title>x*w, &#160;&#160;&#160;bias=True&#45;&gt;y</title>
<path fill="none" stroke="black" d="M289.9,-18C321.63,-18 355.57,-18 380.34,-18"/>
<polygon fill="black" stroke="black" points="380.36,-21.5 390.36,-18 380.36,-14.5 380.36,-21.5"/>
<text text-anchor="middle" x="340.18" y="-21.8" font-family="Times,serif" font-size="14.00">indentity</text>
</g>
</g>
</svg>
