<?xml version="1.0" encoding="UTF-8" standalone="no"?>
<!DOCTYPE svg PUBLIC "-//W3C//DTD SVG 1.1//EN"
 "http://www.w3.org/Graphics/SVG/1.1/DTD/svg11.dtd">
<!-- Generated by graphviz version 3.0.0 (20220315.2325)
 -->
<!-- Title: G Pages: 1 -->
<svg width="468pt" height="99pt"
 viewBox="0.00 0.00 467.88 99.00" xmlns="http://www.w3.org/2000/svg" xmlns:xlink="http://www.w3.org/1999/xlink">
<g id="graph0" class="graph" transform="scale(1 1) rotate(0) translate(4 95)">
<title>G</title>
<polygon fill="white" stroke="transparent" points="-4,4 -4,-95 463.88,-95 463.88,4 -4,4"/>
<g id="clust1" class="cluster">
<title>cluster_1</title>
<polygon fill="lightgrey" stroke="lightgrey" points="8,-8 8,-83 79,-83 79,-8 8,-8"/>
<text text-anchor="middle" x="43.5" y="-67.8" font-family="Times,serif" font-size="14.00">Layer 0</text>
</g>
<g id="clust2" class="cluster">
<title>cluster_2</title>
<polygon fill="lightgrey" stroke="lightgrey" points="118,-8 118,-83 451.88,-83 451.88,-8 118,-8"/>
<text text-anchor="middle" x="284.94" y="-67.8" font-family="Times,serif" font-size="14.00">Layer 1</text>
</g>
<!-- x -->
<g id="node1" class="node">
<title>x</title>
<ellipse fill="none" stroke="black" cx="43" cy="-34" rx="27" ry="18"/>
<text text-anchor="middle" x="43" y="-30.3" font-family="Times,serif" font-size="14.00">x</text>
</g>
<!-- x*w, bias=True -->
<g id="node2" class="node">
<title>x*w, bias=True</title>
<ellipse fill="none" stroke="black" cx="207.24" cy="-34" rx="81.49" ry="18"/>
<text text-anchor="middle" x="207.24" y="-30.3" font-family="Times,serif" font-size="14.00">x*w, bias=True</text>
</g>
<!-- x&#45;&gt;x*w, bias=True -->
<g id="edge1" class="edge">
<title>x&#45;&gt;x*w, bias=True</title>
<path fill="none" stroke="black" d="M70.07,-34C82.75,-34 98.84,-34 115.47,-34"/>
<polygon fill="black" stroke="black" points="115.87,-37.5 125.87,-34 115.87,-30.5 115.87,-37.5"/>
<text text-anchor="middle" x="98.5" y="-37.8" font-family="Times,serif" font-size="14.00">*w</text>
</g>
<!-- yhat -->
<g id="node3" class="node">
<title>yhat</title>
<ellipse fill="none" stroke="black" cx="412.68" cy="-34" rx="31.4" ry="18"/>
<text text-anchor="middle" x="412.68" y="-30.3" font-family="Times,serif" font-size="14.00">yhat</text>
</g>
<!-- x*w, bias=True&#45;&gt;yhat -->
<g id="edge2" class="edge">
<title>x*w, bias=True&#45;&gt;yhat</title>
<path fill="none" stroke="black" d="M288.65,-34C316.87,-34 347.38,-34 370.96,-34"/>
<polygon fill="black" stroke="black" points="371.27,-37.5 381.27,-34 371.27,-30.5 371.27,-37.5"/>
<text text-anchor="middle" x="334.99" y="-37.8" font-family="Times,serif" font-size="14.00">sigmoid</text>
</g>
</g>
</svg>
