<?xml version="1.0" encoding="UTF-8" standalone="no"?>
<!DOCTYPE svg PUBLIC "-//W3C//DTD SVG 1.1//EN"
 "http://www.w3.org/Graphics/SVG/1.1/DTD/svg11.dtd">
<!-- Generated by graphviz version 3.0.0 (20220315.2325)
 -->
<!-- Title: G Pages: 1 -->
<svg width="585pt" height="153pt"
 viewBox="0.00 0.00 584.88 153.00" xmlns="http://www.w3.org/2000/svg" xmlns:xlink="http://www.w3.org/1999/xlink">
<g id="graph0" class="graph" transform="scale(1 1) rotate(0) translate(4 149)">
<title>G</title>
<polygon fill="white" stroke="transparent" points="-4,4 -4,-149 580.88,-149 580.88,4 -4,4"/>
<g id="clust1" class="cluster">
<title>cluster_1</title>
<polygon fill="lightgrey" stroke="lightgrey" points="8,-27 8,-102 79,-102 79,-27 8,-27"/>
<text text-anchor="middle" x="43.5" y="-86.8" font-family="Times,serif" font-size="14.00">Layer 0</text>
</g>
<g id="clust2" class="cluster">
<title>cluster_2</title>
<polygon fill="lightgrey" stroke="lightgrey" points="163,-8 163,-137 406.49,-137 406.49,-8 163,-8"/>
<text text-anchor="middle" x="284.74" y="-121.8" font-family="Times,serif" font-size="14.00">Layer 1</text>
</g>
<g id="clust3" class="cluster">
<title>cluster_3</title>
<polygon fill="lightgrey" stroke="lightgrey" points="490.49,-27 490.49,-102 568.88,-102 568.88,-27 490.49,-27"/>
<text text-anchor="middle" x="529.68" y="-86.8" font-family="Times,serif" font-size="14.00">Layer 2</text>
</g>
<!-- X -->
<g id="node1" class="node">
<title>X</title>
<ellipse fill="none" stroke="black" cx="43" cy="-53" rx="27" ry="18"/>
<text text-anchor="middle" x="43" y="-49.3" font-family="Times,serif" font-size="14.00">X</text>
</g>
<!-- u1[:,0] -->
<g id="node2" class="node">
<title>u1[:,0]</title>
<ellipse fill="none" stroke="black" cx="211.95" cy="-88" rx="40.89" ry="18"/>
<text text-anchor="middle" x="211.95" y="-84.3" font-family="Times,serif" font-size="14.00">u1[:,0]</text>
</g>
<!-- X&#45;&gt;u1[:,0] -->
<g id="edge1" class="edge">
<title>X&#45;&gt;u1[:,0]</title>
<path fill="none" stroke="black" d="M68.99,-58.24C94.16,-63.52 133.59,-71.78 164.51,-78.27"/>
<polygon fill="black" stroke="black" points="164.14,-81.76 174.64,-80.39 165.57,-74.91 164.14,-81.76"/>
<text text-anchor="middle" x="121" y="-78.8" font-family="Times,serif" font-size="14.00">*W1[0,0]</text>
</g>
<!-- u1[:,1] -->
<g id="node3" class="node">
<title>u1[:,1]</title>
<ellipse fill="none" stroke="black" cx="211.95" cy="-34" rx="40.89" ry="18"/>
<text text-anchor="middle" x="211.95" y="-30.3" font-family="Times,serif" font-size="14.00">u1[:,1]</text>
</g>
<!-- X&#45;&gt;u1[:,1] -->
<g id="edge2" class="edge">
<title>X&#45;&gt;u1[:,1]</title>
<path fill="none" stroke="black" d="M69.69,-49.46C76,-48.62 82.74,-47.75 89,-47 112.91,-44.13 139.49,-41.26 161.72,-38.95"/>
<polygon fill="black" stroke="black" points="162.34,-42.4 171.92,-37.9 161.62,-35.44 162.34,-42.4"/>
<text text-anchor="middle" x="121" y="-50.8" font-family="Times,serif" font-size="14.00">*W1[0,1]</text>
</g>
<!-- v1[:,0] -->
<g id="node4" class="node">
<title>v1[:,0]</title>
<ellipse fill="none" stroke="black" cx="358.19" cy="-88" rx="40.09" ry="18"/>
<text text-anchor="middle" x="358.19" y="-84.3" font-family="Times,serif" font-size="14.00">v1[:,0]</text>
</g>
<!-- u1[:,0]&#45;&gt;v1[:,0] -->
<g id="edge3" class="edge">
<title>u1[:,0]&#45;&gt;v1[:,0]</title>
<path fill="none" stroke="black" d="M253.13,-88C269.99,-88 289.77,-88 307.54,-88"/>
<polygon fill="black" stroke="black" points="307.72,-91.5 317.72,-88 307.72,-84.5 307.72,-91.5"/>
<text text-anchor="middle" x="285.39" y="-91.8" font-family="Times,serif" font-size="14.00">relu</text>
</g>
<!-- v1[:,1] -->
<g id="node5" class="node">
<title>v1[:,1]</title>
<ellipse fill="none" stroke="black" cx="358.19" cy="-34" rx="40.09" ry="18"/>
<text text-anchor="middle" x="358.19" y="-30.3" font-family="Times,serif" font-size="14.00">v1[:,1]</text>
</g>
<!-- u1[:,1]&#45;&gt;v1[:,1] -->
<g id="edge4" class="edge">
<title>u1[:,1]&#45;&gt;v1[:,1]</title>
<path fill="none" stroke="black" d="M253.13,-34C269.99,-34 289.77,-34 307.54,-34"/>
<polygon fill="black" stroke="black" points="307.72,-37.5 317.72,-34 307.72,-30.5 307.72,-37.5"/>
<text text-anchor="middle" x="285.39" y="-37.8" font-family="Times,serif" font-size="14.00">relu</text>
</g>
<!-- yhat -->
<g id="node6" class="node">
<title>yhat</title>
<ellipse fill="none" stroke="black" cx="529.68" cy="-53" rx="31.4" ry="18"/>
<text text-anchor="middle" x="529.68" y="-49.3" font-family="Times,serif" font-size="14.00">yhat</text>
</g>
<!-- v1[:,0]&#45;&gt;yhat -->
<g id="edge5" class="edge">
<title>v1[:,0]&#45;&gt;yhat</title>
<path fill="none" stroke="black" d="M395.13,-80.58C423,-74.82 461.55,-66.86 490.07,-60.97"/>
<polygon fill="black" stroke="black" points="491,-64.36 500.09,-58.91 489.59,-57.5 491,-64.36"/>
<text text-anchor="middle" x="448.49" y="-78.8" font-family="Times,serif" font-size="14.00">*W2[0,0]</text>
</g>
<!-- v1[:,1]&#45;&gt;yhat -->
<g id="edge6" class="edge">
<title>v1[:,1]&#45;&gt;yhat</title>
<path fill="none" stroke="black" d="M397.72,-37.96C421.57,-40.45 452.82,-43.8 480.49,-47 483.31,-47.33 486.23,-47.67 489.17,-48.03"/>
<polygon fill="black" stroke="black" points="488.78,-51.5 499.13,-49.24 489.62,-44.55 488.78,-51.5"/>
<text text-anchor="middle" x="448.49" y="-50.8" font-family="Times,serif" font-size="14.00">*W2[1,0]</text>
</g>
</g>
</svg>
