<?xml version="1.0" encoding="UTF-8" standalone="no"?>
<!DOCTYPE svg PUBLIC "-//W3C//DTD SVG 1.1//EN"
 "http://www.w3.org/Graphics/SVG/1.1/DTD/svg11.dtd">
<!-- Generated by graphviz version 3.0.0 (20220315.2325)
 -->
<!-- Title: G Pages: 1 -->
<svg width="331pt" height="261pt"
 viewBox="0.00 0.00 330.79 261.00" xmlns="http://www.w3.org/2000/svg" xmlns:xlink="http://www.w3.org/1999/xlink">
<g id="graph0" class="graph" transform="scale(1 1) rotate(0) translate(4 257)">
<title>G</title>
<polygon fill="white" stroke="transparent" points="-4,4 -4,-257 326.79,-257 326.79,4 -4,4"/>
<g id="clust1" class="cluster">
<title>cluster_1</title>
<polygon fill="lightgrey" stroke="lightgrey" points="8,-89 8,-164 79,-164 79,-89 8,-89"/>
<text text-anchor="middle" x="43.5" y="-148.8" font-family="Times,serif" font-size="14.00">Layer 0</text>
</g>
<g id="clust2" class="cluster">
<title>cluster_2</title>
<polygon fill="lightgrey" stroke="lightgrey" points="99,-8 99,-245 216.39,-245 216.39,-8 99,-8"/>
<text text-anchor="middle" x="157.7" y="-229.8" font-family="Times,serif" font-size="14.00">Layer 1: relu</text>
</g>
<g id="clust3" class="cluster">
<title>cluster_3</title>
<polygon fill="lightgrey" stroke="lightgrey" points="236.39,-89 236.39,-164 314.79,-164 314.79,-89 236.39,-89"/>
<text text-anchor="middle" x="275.59" y="-148.8" font-family="Times,serif" font-size="14.00">Layer 2</text>
</g>
<!-- X -->
<g id="node1" class="node">
<title>X</title>
<ellipse fill="none" stroke="black" cx="43" cy="-115" rx="27" ry="18"/>
<text text-anchor="middle" x="43" y="-111.3" font-family="Times,serif" font-size="14.00">X</text>
</g>
<!-- node1 -->
<g id="node2" class="node">
<title>node1</title>
<ellipse fill="none" stroke="black" cx="157.7" cy="-196" rx="38.99" ry="18"/>
<text text-anchor="middle" x="157.7" y="-192.3" font-family="Times,serif" font-size="14.00">node1</text>
</g>
<!-- X&#45;&gt;node1 -->
<g id="edge1" class="edge">
<title>X&#45;&gt;node1</title>
<path fill="none" stroke="black" d="M57.28,-130.65C67.75,-142.3 83.17,-158.01 99,-169 104.8,-173.03 111.29,-176.72 117.77,-180"/>
<polygon fill="black" stroke="black" points="116.65,-183.35 127.18,-184.51 119.67,-177.03 116.65,-183.35"/>
</g>
<!-- node2 -->
<g id="node3" class="node">
<title>node2</title>
<ellipse fill="none" stroke="black" cx="157.7" cy="-142" rx="38.99" ry="18"/>
<text text-anchor="middle" x="157.7" y="-138.3" font-family="Times,serif" font-size="14.00">node2</text>
</g>
<!-- X&#45;&gt;node2 -->
<g id="edge2" class="edge">
<title>X&#45;&gt;node2</title>
<path fill="none" stroke="black" d="M68.73,-120.93C81.58,-124 97.66,-127.86 112.55,-131.42"/>
<polygon fill="black" stroke="black" points="112.08,-134.91 122.62,-133.84 113.71,-128.1 112.08,-134.91"/>
</g>
<!-- ... -->
<g id="node4" class="node">
<title>...</title>
<ellipse fill="none" stroke="black" cx="157.7" cy="-88" rx="27" ry="18"/>
<text text-anchor="middle" x="157.7" y="-84.3" font-family="Times,serif" font-size="14.00">...</text>
</g>
<!-- X&#45;&gt;... -->
<g id="edge3" class="edge">
<title>X&#45;&gt;...</title>
<path fill="none" stroke="black" d="M68.73,-109.07C84.44,-105.31 104.99,-100.39 122.28,-96.25"/>
<polygon fill="black" stroke="black" points="123.11,-99.65 132.02,-93.91 121.48,-92.84 123.11,-99.65"/>
</g>
<!-- node512 -->
<g id="node5" class="node">
<title>node512</title>
<ellipse fill="none" stroke="black" cx="157.7" cy="-34" rx="50.89" ry="18"/>
<text text-anchor="middle" x="157.7" y="-30.3" font-family="Times,serif" font-size="14.00">node512</text>
</g>
<!-- X&#45;&gt;node512 -->
<g id="edge4" class="edge">
<title>X&#45;&gt;node512</title>
<path fill="none" stroke="black" d="M57.28,-99.35C67.75,-87.7 83.17,-71.99 99,-61 103.77,-57.69 109.01,-54.6 114.33,-51.78"/>
<polygon fill="black" stroke="black" points="115.91,-54.9 123.29,-47.3 112.78,-48.64 115.91,-54.9"/>
</g>
<!-- yhat -->
<g id="node6" class="node">
<title>yhat</title>
<ellipse fill="none" stroke="black" cx="275.59" cy="-115" rx="31.4" ry="18"/>
<text text-anchor="middle" x="275.59" y="-111.3" font-family="Times,serif" font-size="14.00">yhat</text>
</g>
<!-- node1&#45;&gt;yhat -->
<g id="edge5" class="edge">
<title>node1&#45;&gt;yhat</title>
<path fill="none" stroke="black" d="M187.82,-184.49C197.27,-180.21 207.59,-174.93 216.39,-169 229.45,-160.2 242.45,-148.5 252.84,-138.24"/>
<polygon fill="black" stroke="black" points="255.36,-140.66 259.9,-131.08 250.38,-135.74 255.36,-140.66"/>
</g>
<!-- node2&#45;&gt;yhat -->
<g id="edge6" class="edge">
<title>node2&#45;&gt;yhat</title>
<path fill="none" stroke="black" d="M192.84,-134.05C206.49,-130.87 222.27,-127.19 236.3,-123.92"/>
<polygon fill="black" stroke="black" points="237.21,-127.3 246.15,-121.62 235.62,-120.48 237.21,-127.3"/>
</g>
<!-- ...&#45;&gt;yhat -->
<g id="edge7" class="edge">
<title>...&#45;&gt;yhat</title>
<path fill="none" stroke="black" d="M183.56,-93.79C199.01,-97.39 219.19,-102.09 236.62,-106.16"/>
<polygon fill="black" stroke="black" points="235.98,-109.6 246.51,-108.46 237.57,-102.78 235.98,-109.6"/>
</g>
<!-- node512&#45;&gt;yhat -->
<g id="edge8" class="edge">
<title>node512&#45;&gt;yhat</title>
<path fill="none" stroke="black" d="M192,-47.44C200.25,-51.34 208.87,-55.93 216.39,-61 229.45,-69.8 242.45,-81.5 252.84,-91.76"/>
<polygon fill="black" stroke="black" points="250.38,-94.26 259.9,-98.92 255.36,-89.34 250.38,-94.26"/>
</g>
</g>
</svg>
