<?xml version="1.0" encoding="UTF-8" standalone="no"?>
<!DOCTYPE svg PUBLIC "-//W3C//DTD SVG 1.1//EN"
 "http://www.w3.org/Graphics/SVG/1.1/DTD/svg11.dtd">
<!-- Generated by graphviz version 3.0.0 (20220315.2325)
 -->
<!-- Title: G Pages: 1 -->
<svg width="321pt" height="153pt"
 viewBox="0.00 0.00 321.39 153.00" xmlns="http://www.w3.org/2000/svg" xmlns:xlink="http://www.w3.org/1999/xlink">
<g id="graph0" class="graph" transform="scale(1 1) rotate(0) translate(4 149)">
<title>G</title>
<polygon fill="white" stroke="transparent" points="-4,4 -4,-149 317.39,-149 317.39,4 -4,4"/>
<g id="clust1" class="cluster">
<title>cluster_1</title>
<polygon fill="lightgrey" stroke="lightgrey" points="8,-35 8,-110 79,-110 79,-35 8,-35"/>
<text text-anchor="middle" x="43.5" y="-94.8" font-family="Times,serif" font-size="14.00">Layer 0</text>
</g>
<g id="clust2" class="cluster">
<title>cluster_2</title>
<polygon fill="lightgrey" stroke="lightgrey" points="99,-8 99,-137 206.99,-137 206.99,-8 99,-8"/>
<text text-anchor="middle" x="153" y="-121.8" font-family="Times,serif" font-size="14.00">Layer 1: relu</text>
</g>
<g id="clust3" class="cluster">
<title>cluster_3</title>
<polygon fill="lightgrey" stroke="lightgrey" points="226.99,-35 226.99,-110 305.39,-110 305.39,-35 226.99,-35"/>
<text text-anchor="middle" x="266.19" y="-94.8" font-family="Times,serif" font-size="14.00">Layer 2</text>
</g>
<!-- X -->
<g id="node1" class="node">
<title>X</title>
<ellipse fill="none" stroke="black" cx="43" cy="-61" rx="27" ry="18"/>
<text text-anchor="middle" x="43" y="-57.3" font-family="Times,serif" font-size="14.00">X</text>
</g>
<!-- node1 -->
<g id="node2" class="node">
<title>node1</title>
<ellipse fill="none" stroke="black" cx="153" cy="-88" rx="38.99" ry="18"/>
<text text-anchor="middle" x="153" y="-84.3" font-family="Times,serif" font-size="14.00">node1</text>
</g>
<!-- X&#45;&gt;node1 -->
<g id="edge1" class="edge">
<title>X&#45;&gt;node1</title>
<path fill="none" stroke="black" d="M68.51,-67.13C80.21,-70.05 94.58,-73.65 108.08,-77.02"/>
<polygon fill="black" stroke="black" points="107.62,-80.51 118.17,-79.54 109.32,-73.72 107.62,-80.51"/>
</g>
<!-- node2 -->
<g id="node3" class="node">
<title>node2</title>
<ellipse fill="none" stroke="black" cx="153" cy="-34" rx="38.99" ry="18"/>
<text text-anchor="middle" x="153" y="-30.3" font-family="Times,serif" font-size="14.00">node2</text>
</g>
<!-- X&#45;&gt;node2 -->
<g id="edge2" class="edge">
<title>X&#45;&gt;node2</title>
<path fill="none" stroke="black" d="M68.51,-54.87C80.21,-51.95 94.58,-48.35 108.08,-44.98"/>
<polygon fill="black" stroke="black" points="109.32,-48.28 118.17,-42.46 107.62,-41.49 109.32,-48.28"/>
</g>
<!-- yhat -->
<g id="node4" class="node">
<title>yhat</title>
<ellipse fill="none" stroke="black" cx="266.19" cy="-61" rx="31.4" ry="18"/>
<text text-anchor="middle" x="266.19" y="-57.3" font-family="Times,serif" font-size="14.00">yhat</text>
</g>
<!-- node1&#45;&gt;yhat -->
<g id="edge3" class="edge">
<title>node1&#45;&gt;yhat</title>
<path fill="none" stroke="black" d="M187.96,-79.75C200.36,-76.74 214.46,-73.32 227.18,-70.23"/>
<polygon fill="black" stroke="black" points="228.15,-73.6 237.04,-67.84 226.49,-66.79 228.15,-73.6"/>
</g>
<!-- node2&#45;&gt;yhat -->
<g id="edge4" class="edge">
<title>node2&#45;&gt;yhat</title>
<path fill="none" stroke="black" d="M187.96,-42.25C200.36,-45.26 214.46,-48.68 227.18,-51.77"/>
<polygon fill="black" stroke="black" points="226.49,-55.21 237.04,-54.16 228.15,-48.4 226.49,-55.21"/>
</g>
</g>
</svg>
