<?xml version="1.0" encoding="UTF-8" standalone="no"?>
<!DOCTYPE svg PUBLIC "-//W3C//DTD SVG 1.1//EN"
 "http://www.w3.org/Graphics/SVG/1.1/DTD/svg11.dtd">
<!-- Generated by graphviz version 3.0.0 (20220315.2325)
 -->
<!-- Title: G Pages: 1 -->
<svg width="266pt" height="99pt"
 viewBox="0.00 0.00 266.19 99.00" xmlns="http://www.w3.org/2000/svg" xmlns:xlink="http://www.w3.org/1999/xlink">
<g id="graph0" class="graph" transform="scale(1 1) rotate(0) translate(4 95)">
<title>G</title>
<polygon fill="white" stroke="transparent" points="-4,4 -4,-95 262.19,-95 262.19,4 -4,4"/>
<g id="clust1" class="cluster">
<title>cluster_1</title>
<polygon fill="lightgrey" stroke="lightgrey" points="8,-8 8,-83 79,-83 79,-8 8,-8"/>
<text text-anchor="middle" x="43.5" y="-67.8" font-family="Times,serif" font-size="14.00">Layer 0</text>
</g>
<g id="clust2" class="cluster">
<title>cluster_2</title>
<polygon fill="lightgrey" stroke="lightgrey" points="99,-8 99,-83 250.19,-83 250.19,-8 99,-8"/>
<text text-anchor="middle" x="174.59" y="-67.8" font-family="Times,serif" font-size="14.00">Layer 1: sigmoid</text>
</g>
<!-- x -->
<g id="node1" class="node">
<title>x</title>
<ellipse fill="none" stroke="black" cx="43" cy="-34" rx="27" ry="18"/>
<text text-anchor="middle" x="43" y="-30.3" font-family="Times,serif" font-size="14.00">x</text>
</g>
<!-- node1=yhat -->
<g id="node2" class="node">
<title>node1=yhat</title>
<ellipse fill="none" stroke="black" cx="174.59" cy="-34" rx="67.69" ry="18"/>
<text text-anchor="middle" x="174.59" y="-30.3" font-family="Times,serif" font-size="14.00">node1=yhat</text>
</g>
<!-- x&#45;&gt;node1=yhat -->
<g id="edge1" class="edge">
<title>x&#45;&gt;node1=yhat</title>
<path fill="none" stroke="black" d="M70.23,-34C78.18,-34 87.36,-34 96.9,-34"/>
<polygon fill="black" stroke="black" points="96.93,-37.5 106.93,-34 96.93,-30.5 96.93,-37.5"/>
</g>
</g>
</svg>
