<?xml version="1.0" encoding="UTF-8" standalone="no"?>
<!DOCTYPE svg PUBLIC "-//W3C//DTD SVG 1.1//EN"
 "http://www.w3.org/Graphics/SVG/1.1/DTD/svg11.dtd">
<!-- Generated by graphviz version 4.0.0 (20220529.1859)
 -->
<!-- Title: Tree Pages: 1 -->
<svg width="2038pt" height="373pt"
 viewBox="0.00 0.00 2038.00 373.00" xmlns="http://www.w3.org/2000/svg" xmlns:xlink="http://www.w3.org/1999/xlink">
<g id="graph0" class="graph" transform="scale(1 1) rotate(0) translate(4 369)">
<title>Tree</title>
<polygon fill="white" stroke="transparent" points="-4,4 -4,-369 2034,-369 2034,4 -4,4"/>
<!-- 0 -->
<g id="node1" class="node">
<title>0</title>
<polygon fill="none" stroke="black" points="1135.5,-365 888.5,-365 888.5,-297 1135.5,-297 1135.5,-365"/>
<text text-anchor="middle" x="1012" y="-349.8" font-family="Helvetica,sans-Serif" font-size="14.00">smoker_yes &lt;= 0.5</text>
<text text-anchor="middle" x="1012" y="-334.8" font-family="Helvetica,sans-Serif" font-size="14.00">squared_error = 146542766.494</text>
<text text-anchor="middle" x="1012" y="-319.8" font-family="Helvetica,sans-Serif" font-size="14.00">samples = 1338</text>
<text text-anchor="middle" x="1012" y="-304.8" font-family="Helvetica,sans-Serif" font-size="14.00">value = 13270.422</text>
</g>
<!-- 1 -->
<g id="node2" class="node">
<title>1</title>
<polygon fill="none" stroke="black" points="875,-261 637,-261 637,-193 875,-193 875,-261"/>
<text text-anchor="middle" x="756" y="-245.8" font-family="Helvetica,sans-Serif" font-size="14.00">age &lt;= 42.5</text>
<text text-anchor="middle" x="756" y="-230.8" font-family="Helvetica,sans-Serif" font-size="14.00">squared_error = 35891656.003</text>
<text text-anchor="middle" x="756" y="-215.8" font-family="Helvetica,sans-Serif" font-size="14.00">samples = 1064</text>
<text text-anchor="middle" x="756" y="-200.8" font-family="Helvetica,sans-Serif" font-size="14.00">value = 8434.268</text>
</g>
<!-- 0&#45;&gt;1 -->
<g id="edge1" class="edge">
<title>0&#45;&gt;1</title>
<path fill="none" stroke="black" d="M928.88,-296.88C903.27,-286.68 874.91,-275.38 848.69,-264.93"/>
<polygon fill="black" stroke="black" points="849.72,-261.57 839.14,-261.12 847.13,-268.08 849.72,-261.57"/>
<text text-anchor="middle" x="849.02" y="-280.39" font-family="Helvetica,sans-Serif" font-size="14.00">True</text>
</g>
<!-- 8 -->
<g id="node9" class="node">
<title>8</title>
<polygon fill="none" stroke="black" points="1394.5,-261 1147.5,-261 1147.5,-193 1394.5,-193 1394.5,-261"/>
<text text-anchor="middle" x="1271" y="-245.8" font-family="Helvetica,sans-Serif" font-size="14.00">bmi &lt;= 30.01</text>
<text text-anchor="middle" x="1271" y="-230.8" font-family="Helvetica,sans-Serif" font-size="14.00">squared_error = 132721153.136</text>
<text text-anchor="middle" x="1271" y="-215.8" font-family="Helvetica,sans-Serif" font-size="14.00">samples = 274</text>
<text text-anchor="middle" x="1271" y="-200.8" font-family="Helvetica,sans-Serif" font-size="14.00">value = 32050.232</text>
</g>
<!-- 0&#45;&gt;8 -->
<g id="edge8" class="edge">
<title>0&#45;&gt;8</title>
<path fill="none" stroke="black" d="M1096.09,-296.88C1122.12,-286.63 1150.95,-275.28 1177.57,-264.79"/>
<polygon fill="black" stroke="black" points="1178.87,-268.05 1186.89,-261.12 1176.3,-261.53 1178.87,-268.05"/>
<text text-anchor="middle" x="1176.92" y="-280.35" font-family="Helvetica,sans-Serif" font-size="14.00">False</text>
</g>
<!-- 2 -->
<g id="node3" class="node">
<title>2</title>
<polygon fill="none" stroke="black" points="494,-157 256,-157 256,-89 494,-89 494,-157"/>
<text text-anchor="middle" x="375" y="-141.8" font-family="Helvetica,sans-Serif" font-size="14.00">children &lt;= 0.5</text>
<text text-anchor="middle" x="375" y="-126.8" font-family="Helvetica,sans-Serif" font-size="14.00">squared_error = 22145208.607</text>
<text text-anchor="middle" x="375" y="-111.8" font-family="Helvetica,sans-Serif" font-size="14.00">samples = 596</text>
<text text-anchor="middle" x="375" y="-96.8" font-family="Helvetica,sans-Serif" font-size="14.00">value = 5398.85</text>
</g>
<!-- 1&#45;&gt;2 -->
<g id="edge2" class="edge">
<title>1&#45;&gt;2</title>
<path fill="none" stroke="black" d="M636.76,-194.08C594.54,-182.78 546.88,-170.02 503.9,-158.51"/>
<polygon fill="black" stroke="black" points="504.8,-155.13 494.24,-155.92 502.99,-161.89 504.8,-155.13"/>
</g>
<!-- 5 -->
<g id="node6" class="node">
<title>5</title>
<polygon fill="none" stroke="black" points="875,-157 637,-157 637,-89 875,-89 875,-157"/>
<text text-anchor="middle" x="756" y="-141.8" font-family="Helvetica,sans-Serif" font-size="14.00">age &lt;= 51.5</text>
<text text-anchor="middle" x="756" y="-126.8" font-family="Helvetica,sans-Serif" font-size="14.00">squared_error = 26721037.099</text>
<text text-anchor="middle" x="756" y="-111.8" font-family="Helvetica,sans-Serif" font-size="14.00">samples = 468</text>
<text text-anchor="middle" x="756" y="-96.8" font-family="Helvetica,sans-Serif" font-size="14.00">value = 12299.887</text>
</g>
<!-- 1&#45;&gt;5 -->
<g id="edge5" class="edge">
<title>1&#45;&gt;5</title>
<path fill="none" stroke="black" d="M756,-192.88C756,-184.78 756,-175.98 756,-167.47"/>
<polygon fill="black" stroke="black" points="759.5,-167.3 756,-157.3 752.5,-167.3 759.5,-167.3"/>
</g>
<!-- 3 -->
<g id="node4" class="node">
<title>3</title>
<polygon fill="none" stroke="black" points="238,-53 0,-53 0,0 238,0 238,-53"/>
<text text-anchor="middle" x="119" y="-37.8" font-family="Helvetica,sans-Serif" font-size="14.00">squared_error = 16936983.559</text>
<text text-anchor="middle" x="119" y="-22.8" font-family="Helvetica,sans-Serif" font-size="14.00">samples = 253</text>
<text text-anchor="middle" x="119" y="-7.8" font-family="Helvetica,sans-Serif" font-size="14.00">value = 3850.841</text>
</g>
<!-- 2&#45;&gt;3 -->
<g id="edge3" class="edge">
<title>2&#45;&gt;3</title>
<path fill="none" stroke="black" d="M285.46,-88.95C256.96,-78.43 225.65,-66.87 197.95,-56.64"/>
<polygon fill="black" stroke="black" points="198.91,-53.27 188.31,-53.09 196.48,-59.83 198.91,-53.27"/>
</g>
<!-- 4 -->
<g id="node5" class="node">
<title>4</title>
<polygon fill="none" stroke="black" points="494,-53 256,-53 256,0 494,0 494,-53"/>
<text text-anchor="middle" x="375" y="-37.8" font-family="Helvetica,sans-Serif" font-size="14.00">squared_error = 22915523.402</text>
<text text-anchor="middle" x="375" y="-22.8" font-family="Helvetica,sans-Serif" font-size="14.00">samples = 343</text>
<text text-anchor="middle" x="375" y="-7.8" font-family="Helvetica,sans-Serif" font-size="14.00">value = 6540.675</text>
</g>
<!-- 2&#45;&gt;4 -->
<g id="edge4" class="edge">
<title>2&#45;&gt;4</title>
<path fill="none" stroke="black" d="M375,-88.95C375,-80.72 375,-71.85 375,-63.48"/>
<polygon fill="black" stroke="black" points="378.5,-63.24 375,-53.24 371.5,-63.24 378.5,-63.24"/>
</g>
<!-- 6 -->
<g id="node7" class="node">
<title>6</title>
<polygon fill="none" stroke="black" points="750,-53 512,-53 512,0 750,0 750,-53"/>
<text text-anchor="middle" x="631" y="-37.8" font-family="Helvetica,sans-Serif" font-size="14.00">squared_error = 20456563.503</text>
<text text-anchor="middle" x="631" y="-22.8" font-family="Helvetica,sans-Serif" font-size="14.00">samples = 199</text>
<text text-anchor="middle" x="631" y="-7.8" font-family="Helvetica,sans-Serif" font-size="14.00">value = 10193.097</text>
</g>
<!-- 5&#45;&gt;6 -->
<g id="edge6" class="edge">
<title>5&#45;&gt;6</title>
<path fill="none" stroke="black" d="M712.28,-88.95C699.58,-79.34 685.73,-68.87 673.12,-59.34"/>
<polygon fill="black" stroke="black" points="675.13,-56.48 665.04,-53.24 670.91,-62.06 675.13,-56.48"/>
</g>
<!-- 7 -->
<g id="node8" class="node">
<title>7</title>
<polygon fill="none" stroke="black" points="1006,-53 768,-53 768,0 1006,0 1006,-53"/>
<text text-anchor="middle" x="887" y="-37.8" font-family="Helvetica,sans-Serif" font-size="14.00">squared_error = 25642708.343</text>
<text text-anchor="middle" x="887" y="-22.8" font-family="Helvetica,sans-Serif" font-size="14.00">samples = 269</text>
<text text-anchor="middle" x="887" y="-7.8" font-family="Helvetica,sans-Serif" font-size="14.00">value = 13858.442</text>
</g>
<!-- 5&#45;&gt;7 -->
<g id="edge7" class="edge">
<title>5&#45;&gt;7</title>
<path fill="none" stroke="black" d="M801.82,-88.95C815.13,-79.34 829.64,-68.87 842.86,-59.34"/>
<polygon fill="black" stroke="black" points="845.26,-61.93 851.32,-53.24 841.16,-56.25 845.26,-61.93"/>
</g>
<!-- 9 -->
<g id="node10" class="node">
<title>9</title>
<polygon fill="none" stroke="black" points="1390,-157 1152,-157 1152,-89 1390,-89 1390,-157"/>
<text text-anchor="middle" x="1271" y="-141.8" font-family="Helvetica,sans-Serif" font-size="14.00">age &lt;= 41.0</text>
<text text-anchor="middle" x="1271" y="-126.8" font-family="Helvetica,sans-Serif" font-size="14.00">squared_error = 25281960.654</text>
<text text-anchor="middle" x="1271" y="-111.8" font-family="Helvetica,sans-Serif" font-size="14.00">samples = 130</text>
<text text-anchor="middle" x="1271" y="-96.8" font-family="Helvetica,sans-Serif" font-size="14.00">value = 21369.223</text>
</g>
<!-- 8&#45;&gt;9 -->
<g id="edge9" class="edge">
<title>8&#45;&gt;9</title>
<path fill="none" stroke="black" d="M1271,-192.88C1271,-184.78 1271,-175.98 1271,-167.47"/>
<polygon fill="black" stroke="black" points="1274.5,-167.3 1271,-157.3 1267.5,-167.3 1274.5,-167.3"/>
</g>
<!-- 12 -->
<g id="node13" class="node">
<title>12</title>
<polygon fill="none" stroke="black" points="1774,-157 1536,-157 1536,-89 1774,-89 1774,-157"/>
<text text-anchor="middle" x="1655" y="-141.8" font-family="Helvetica,sans-Serif" font-size="14.00">age &lt;= 41.5</text>
<text text-anchor="middle" x="1655" y="-126.8" font-family="Helvetica,sans-Serif" font-size="14.00">squared_error = 33743125.229</text>
<text text-anchor="middle" x="1655" y="-111.8" font-family="Helvetica,sans-Serif" font-size="14.00">samples = 144</text>
<text text-anchor="middle" x="1655" y="-96.8" font-family="Helvetica,sans-Serif" font-size="14.00">value = 41692.809</text>
</g>
<!-- 8&#45;&gt;12 -->
<g id="edge12" class="edge">
<title>8&#45;&gt;12</title>
<path fill="none" stroke="black" d="M1394.61,-193.17C1436.62,-182.01 1483.64,-169.52 1526.05,-158.25"/>
<polygon fill="black" stroke="black" points="1527.11,-161.59 1535.87,-155.64 1525.31,-154.83 1527.11,-161.59"/>
</g>
<!-- 10 -->
<g id="node11" class="node">
<title>10</title>
<polygon fill="none" stroke="black" points="1262,-53 1024,-53 1024,0 1262,0 1262,-53"/>
<text text-anchor="middle" x="1143" y="-37.8" font-family="Helvetica,sans-Serif" font-size="14.00">squared_error = 12049437.126</text>
<text text-anchor="middle" x="1143" y="-22.8" font-family="Helvetica,sans-Serif" font-size="14.00">samples = 73</text>
<text text-anchor="middle" x="1143" y="-7.8" font-family="Helvetica,sans-Serif" font-size="14.00">value = 18474.022</text>
</g>
<!-- 9&#45;&gt;10 -->
<g id="edge10" class="edge">
<title>9&#45;&gt;10</title>
<path fill="none" stroke="black" d="M1226.23,-88.95C1213.22,-79.34 1199.04,-68.87 1186.13,-59.34"/>
<polygon fill="black" stroke="black" points="1187.98,-56.36 1177.86,-53.24 1183.83,-61.99 1187.98,-56.36"/>
</g>
<!-- 11 -->
<g id="node12" class="node">
<title>11</title>
<polygon fill="none" stroke="black" points="1518,-53 1280,-53 1280,0 1518,0 1518,-53"/>
<text text-anchor="middle" x="1399" y="-37.8" font-family="Helvetica,sans-Serif" font-size="14.00">squared_error = 17745345.573</text>
<text text-anchor="middle" x="1399" y="-22.8" font-family="Helvetica,sans-Serif" font-size="14.00">samples = 57</text>
<text text-anchor="middle" x="1399" y="-7.8" font-family="Helvetica,sans-Serif" font-size="14.00">value = 25077.113</text>
</g>
<!-- 9&#45;&gt;11 -->
<g id="edge11" class="edge">
<title>9&#45;&gt;11</title>
<path fill="none" stroke="black" d="M1315.77,-88.95C1328.78,-79.34 1342.96,-68.87 1355.87,-59.34"/>
<polygon fill="black" stroke="black" points="1358.17,-61.99 1364.14,-53.24 1354.02,-56.36 1358.17,-61.99"/>
</g>
<!-- 13 -->
<g id="node14" class="node">
<title>13</title>
<polygon fill="none" stroke="black" points="1774,-53 1536,-53 1536,0 1774,0 1774,-53"/>
<text text-anchor="middle" x="1655" y="-37.8" font-family="Helvetica,sans-Serif" font-size="14.00">squared_error = 19630324.142</text>
<text text-anchor="middle" x="1655" y="-22.8" font-family="Helvetica,sans-Serif" font-size="14.00">samples = 78</text>
<text text-anchor="middle" x="1655" y="-7.8" font-family="Helvetica,sans-Serif" font-size="14.00">value = 38354.292</text>
</g>
<!-- 12&#45;&gt;13 -->
<g id="edge13" class="edge">
<title>12&#45;&gt;13</title>
<path fill="none" stroke="black" d="M1655,-88.95C1655,-80.72 1655,-71.85 1655,-63.48"/>
<polygon fill="black" stroke="black" points="1658.5,-63.24 1655,-53.24 1651.5,-63.24 1658.5,-63.24"/>
</g>
<!-- 14 -->
<g id="node15" class="node">
<title>14</title>
<polygon fill="none" stroke="black" points="2030,-53 1792,-53 1792,0 2030,0 2030,-53"/>
<text text-anchor="middle" x="1911" y="-37.8" font-family="Helvetica,sans-Serif" font-size="14.00">squared_error = 21682580.293</text>
<text text-anchor="middle" x="1911" y="-22.8" font-family="Helvetica,sans-Serif" font-size="14.00">samples = 66</text>
<text text-anchor="middle" x="1911" y="-7.8" font-family="Helvetica,sans-Serif" font-size="14.00">value = 45638.329</text>
</g>
<!-- 12&#45;&gt;14 -->
<g id="edge14" class="edge">
<title>12&#45;&gt;14</title>
<path fill="none" stroke="black" d="M1744.54,-88.95C1773.04,-78.43 1804.35,-66.87 1832.05,-56.64"/>
<polygon fill="black" stroke="black" points="1833.52,-59.83 1841.69,-53.09 1831.09,-53.27 1833.52,-59.83"/>
</g>
</g>
</svg>
