<?xml version="1.0" encoding="UTF-8" standalone="no"?>
<!DOCTYPE svg PUBLIC "-//W3C//DTD SVG 1.1//EN"
 "http://www.w3.org/Graphics/SVG/1.1/DTD/svg11.dtd">
<!-- Generated by graphviz version 3.0.0 (20220315.2325)
 -->
<!-- Title: G Pages: 1 -->
<svg width="727pt" height="98pt"
 viewBox="0.00 0.00 726.86 98.00" xmlns="http://www.w3.org/2000/svg" xmlns:xlink="http://www.w3.org/1999/xlink">
<g id="graph0" class="graph" transform="scale(1 1) rotate(0) translate(4 94)">
<title>G</title>
<polygon fill="white" stroke="transparent" points="-4,4 -4,-94 722.86,-94 722.86,4 -4,4"/>
<!-- 1 -->
<g id="node1" class="node">
<title>1</title>
<ellipse fill="none" stroke="black" cx="27" cy="-72" rx="27" ry="18"/>
<text text-anchor="middle" x="27" y="-68.3" font-family="Times,serif" font-size="14.00">1</text>
</g>
<!-- beta0_hat + x*beta1_hat, &#160;&#160;&#160;bias=False -->
<g id="node2" class="node">
<title>beta0_hat + x*beta1_hat, &#160;&#160;&#160;bias=False</title>
<ellipse fill="none" stroke="black" cx="363.73" cy="-45" rx="191.97" ry="18"/>
<text text-anchor="middle" x="363.73" y="-41.3" font-family="Times,serif" font-size="14.00">beta0_hat + x*beta1_hat, &#160;&#160;&#160;bias=False</text>
</g>
<!-- 1&#45;&gt;beta0_hat + x*beta1_hat, &#160;&#160;&#160;bias=False -->
<g id="edge1" class="edge">
<title>1&#45;&gt;beta0_hat + x*beta1_hat, &#160;&#160;&#160;bias=False</title>
<path fill="none" stroke="black" d="M53.99,-69.9C87.46,-67.2 148.36,-62.29 207.28,-57.54"/>
<polygon fill="black" stroke="black" points="207.79,-61.01 217.48,-56.72 207.23,-54.03 207.79,-61.01"/>
<text text-anchor="middle" x="113" y="-71.8" font-family="Times,serif" font-size="14.00">* beta0_hat</text>
</g>
<!-- yhat -->
<g id="node4" class="node">
<title>yhat</title>
<ellipse fill="none" stroke="black" cx="687.66" cy="-45" rx="31.4" ry="18"/>
<text text-anchor="middle" x="687.66" y="-41.3" font-family="Times,serif" font-size="14.00">yhat</text>
</g>
<!-- beta0_hat + x*beta1_hat, &#160;&#160;&#160;bias=False&#45;&gt;yhat -->
<g id="edge3" class="edge">
<title>beta0_hat + x*beta1_hat, &#160;&#160;&#160;bias=False&#45;&gt;yhat</title>
<path fill="none" stroke="black" d="M555.72,-45C589.92,-45 622.25,-45 646.23,-45"/>
<polygon fill="black" stroke="black" points="646.3,-48.5 656.3,-45 646.3,-41.5 646.3,-48.5"/>
<text text-anchor="middle" x="605.97" y="-48.8" font-family="Times,serif" font-size="14.00">indentity</text>
</g>
<!-- x -->
<g id="node3" class="node">
<title>x</title>
<ellipse fill="none" stroke="black" cx="27" cy="-18" rx="27" ry="18"/>
<text text-anchor="middle" x="27" y="-14.3" font-family="Times,serif" font-size="14.00">x</text>
</g>
<!-- x&#45;&gt;beta0_hat + x*beta1_hat, &#160;&#160;&#160;bias=False -->
<g id="edge2" class="edge">
<title>x&#45;&gt;beta0_hat + x*beta1_hat, &#160;&#160;&#160;bias=False</title>
<path fill="none" stroke="black" d="M53.99,-20.1C87.46,-22.8 148.36,-27.71 207.28,-32.46"/>
<polygon fill="black" stroke="black" points="207.23,-35.97 217.48,-33.28 207.79,-28.99 207.23,-35.97"/>
<text text-anchor="middle" x="113" y="-30.8" font-family="Times,serif" font-size="14.00">* beta1_hat</text>
</g>
</g>
</svg>
