<?xml version="1.0" encoding="UTF-8" standalone="no"?>
<!DOCTYPE svg PUBLIC "-//W3C//DTD SVG 1.1//EN"
 "http://www.w3.org/Graphics/SVG/1.1/DTD/svg11.dtd">
<!-- Generated by graphviz version 3.0.0 (20220315.2325)
 -->
<!-- Title: G Pages: 1 -->
<svg width="640pt" height="44pt"
 viewBox="0.00 0.00 639.56 44.00" xmlns="http://www.w3.org/2000/svg" xmlns:xlink="http://www.w3.org/1999/xlink">
<g id="graph0" class="graph" transform="scale(1 1) rotate(0) translate(4 40)">
<title>G</title>
<polygon fill="white" stroke="transparent" points="-4,4 -4,-40 635.56,-40 635.56,4 -4,4"/>
<!-- X=[1 x] -->
<g id="node1" class="node">
<title>X=[1 x]</title>
<ellipse fill="none" stroke="black" cx="46.15" cy="-18" rx="46.29" ry="18"/>
<text text-anchor="middle" x="46.15" y="-14.3" font-family="Times,serif" font-size="14.00">X=[1 x]</text>
</g>
<!-- X@beta_hat, &#160;&#160;&#160;bias=False -->
<g id="node2" class="node">
<title>X@beta_hat, &#160;&#160;&#160;bias=False</title>
<ellipse fill="none" stroke="black" cx="336.23" cy="-18" rx="131.88" ry="18"/>
<text text-anchor="middle" x="336.23" y="-14.3" font-family="Times,serif" font-size="14.00">X@beta_hat, &#160;&#160;&#160;bias=False</text>
</g>
<!-- X=[1 x]&#45;&gt;X@beta_hat, &#160;&#160;&#160;bias=False -->
<g id="edge1" class="edge">
<title>X=[1 x]&#45;&gt;X@beta_hat, &#160;&#160;&#160;bias=False</title>
<path fill="none" stroke="black" d="M92.48,-18C120.07,-18 156.97,-18 193.66,-18"/>
<polygon fill="black" stroke="black" points="193.99,-21.5 203.99,-18 193.99,-14.5 193.99,-21.5"/>
<text text-anchor="middle" x="148.29" y="-21.8" font-family="Times,serif" font-size="14.00">@beta_hat</text>
</g>
<!-- yhat -->
<g id="node3" class="node">
<title>yhat</title>
<ellipse fill="none" stroke="black" cx="600.37" cy="-18" rx="31.4" ry="18"/>
<text text-anchor="middle" x="600.37" y="-14.3" font-family="Times,serif" font-size="14.00">yhat</text>
</g>
<!-- X@beta_hat, &#160;&#160;&#160;bias=False&#45;&gt;yhat -->
<g id="edge2" class="edge">
<title>X@beta_hat, &#160;&#160;&#160;bias=False&#45;&gt;yhat</title>
<path fill="none" stroke="black" d="M468.3,-18C501.34,-18 534.38,-18 559.02,-18"/>
<polygon fill="black" stroke="black" points="559.04,-21.5 569.04,-18 559.04,-14.5 559.04,-21.5"/>
<text text-anchor="middle" x="518.67" y="-21.8" font-family="Times,serif" font-size="14.00">indentity</text>
</g>
</g>
</svg>
