<?xml version="1.0" encoding="UTF-8" standalone="no"?>
<!DOCTYPE svg PUBLIC "-//W3C//DTD SVG 1.1//EN"
 "http://www.w3.org/Graphics/SVG/1.1/DTD/svg11.dtd">
<!-- Generated by graphviz version 3.0.0 (20220315.2325)
 -->
<!-- Title: G Pages: 1 -->
<svg width="598pt" height="44pt"
 viewBox="0.00 0.00 598.07 44.00" xmlns="http://www.w3.org/2000/svg" xmlns:xlink="http://www.w3.org/1999/xlink">
<g id="graph0" class="graph" transform="scale(1 1) rotate(0) translate(4 40)">
<title>G</title>
<polygon fill="white" stroke="transparent" points="-4,4 -4,-40 594.07,-40 594.07,4 -4,4"/>
<!-- x -->
<g id="node1" class="node">
<title>x</title>
<ellipse fill="none" stroke="black" cx="27" cy="-18" rx="27" ry="18"/>
<text text-anchor="middle" x="27" y="-14.3" font-family="Times,serif" font-size="14.00">x</text>
</g>
<!-- x*beta1_hat, &#160;&#160;&#160;bias=True -->
<g id="node2" class="node">
<title>x*beta1_hat, &#160;&#160;&#160;bias=True</title>
<ellipse fill="none" stroke="black" cx="297.34" cy="-18" rx="129.18" ry="18"/>
<text text-anchor="middle" x="297.34" y="-14.3" font-family="Times,serif" font-size="14.00">x*beta1_hat, &#160;&#160;&#160;bias=True</text>
</g>
<!-- x&#45;&gt;x*beta1_hat, &#160;&#160;&#160;bias=True -->
<g id="edge1" class="edge">
<title>x&#45;&gt;x*beta1_hat, &#160;&#160;&#160;bias=True</title>
<path fill="none" stroke="black" d="M54.22,-18C78.96,-18 118.07,-18 157.71,-18"/>
<polygon fill="black" stroke="black" points="157.79,-21.5 167.79,-18 157.79,-14.5 157.79,-21.5"/>
<text text-anchor="middle" x="111" y="-21.8" font-family="Times,serif" font-size="14.00">*beta1_hat</text>
</g>
<!-- yhat -->
<g id="node3" class="node">
<title>yhat</title>
<ellipse fill="none" stroke="black" cx="558.87" cy="-18" rx="31.4" ry="18"/>
<text text-anchor="middle" x="558.87" y="-14.3" font-family="Times,serif" font-size="14.00">yhat</text>
</g>
<!-- x*beta1_hat, &#160;&#160;&#160;bias=True&#45;&gt;yhat -->
<g id="edge2" class="edge">
<title>x*beta1_hat, &#160;&#160;&#160;bias=True&#45;&gt;yhat</title>
<path fill="none" stroke="black" d="M426.97,-18C459.87,-18 492.87,-18 517.5,-18"/>
<polygon fill="black" stroke="black" points="517.53,-21.5 527.53,-18 517.53,-14.5 517.53,-21.5"/>
<text text-anchor="middle" x="477.18" y="-21.8" font-family="Times,serif" font-size="14.00">indentity</text>
</g>
</g>
</svg>
