<?xml version="1.0" encoding="UTF-8" standalone="no"?>
<!DOCTYPE svg PUBLIC "-//W3C//DTD SVG 1.1//EN"
 "http://www.w3.org/Graphics/SVG/1.1/DTD/svg11.dtd">
<!-- Generated by graphviz version 3.0.0 (20220315.2325)
 -->
<!-- Title: G Pages: 1 -->
<svg width="383pt" height="261pt"
 viewBox="0.00 0.00 383.29 261.00" xmlns="http://www.w3.org/2000/svg" xmlns:xlink="http://www.w3.org/1999/xlink">
<g id="graph0" class="graph" transform="scale(1 1) rotate(0) translate(4 257)">
<title>G</title>
<polygon fill="white" stroke="transparent" points="-4,4 -4,-257 379.29,-257 379.29,4 -4,4"/>
<g id="clust1" class="cluster">
<title>cluster_1</title>
<polygon fill="lightgrey" stroke="lightgrey" points="8,-8 8,-245 91.59,-245 91.59,-8 8,-8"/>
<text text-anchor="middle" x="49.8" y="-229.8" font-family="Times,serif" font-size="14.00">Layer 0</text>
</g>
<g id="clust2" class="cluster">
<title>cluster_2</title>
<polygon fill="lightgrey" stroke="lightgrey" points="111.59,-8 111.59,-245 219.29,-245 219.29,-8 111.59,-8"/>
<text text-anchor="middle" x="165.44" y="-229.8" font-family="Times,serif" font-size="14.00">Layer 1: relu</text>
</g>
<g id="clust3" class="cluster">
<title>cluster_3</title>
<polygon fill="lightgrey" stroke="lightgrey" points="239.29,-89 239.29,-164 375.29,-164 375.29,-89 239.29,-89"/>
<text text-anchor="middle" x="307.29" y="-148.8" font-family="Times,serif" font-size="14.00">Layer 2: sigmoid</text>
</g>
<!-- x1 -->
<g id="node1" class="node">
<title>x1</title>
<ellipse fill="none" stroke="black" cx="49.8" cy="-196" rx="27" ry="18"/>
<text text-anchor="middle" x="49.8" y="-192.3" font-family="Times,serif" font-size="14.00">x1</text>
</g>
<!-- node1 -->
<g id="node5" class="node">
<title>node1</title>
<ellipse fill="none" stroke="black" cx="165.44" cy="-196" rx="38.99" ry="18"/>
<text text-anchor="middle" x="165.44" y="-192.3" font-family="Times,serif" font-size="14.00">node1</text>
</g>
<!-- x1&#45;&gt;node1 -->
<g id="edge1" class="edge">
<title>x1&#45;&gt;node1</title>
<path fill="none" stroke="black" d="M76.87,-196C88.57,-196 102.75,-196 116.27,-196"/>
<polygon fill="black" stroke="black" points="116.42,-199.5 126.42,-196 116.42,-192.5 116.42,-199.5"/>
</g>
<!-- node2 -->
<g id="node6" class="node">
<title>node2</title>
<ellipse fill="none" stroke="black" cx="165.44" cy="-142" rx="38.99" ry="18"/>
<text text-anchor="middle" x="165.44" y="-138.3" font-family="Times,serif" font-size="14.00">node2</text>
</g>
<!-- x1&#45;&gt;node2 -->
<g id="edge5" class="edge">
<title>x1&#45;&gt;node2</title>
<path fill="none" stroke="black" d="M72.17,-185.84C88.01,-178.32 109.97,-167.88 128.5,-159.08"/>
<polygon fill="black" stroke="black" points="130.01,-162.23 137.54,-154.78 127.01,-155.91 130.01,-162.23"/>
</g>
<!-- ... -->
<g id="node7" class="node">
<title>...</title>
<ellipse fill="none" stroke="black" cx="165.44" cy="-88" rx="27" ry="18"/>
<text text-anchor="middle" x="165.44" y="-84.3" font-family="Times,serif" font-size="14.00">...</text>
</g>
<!-- x1&#45;&gt;... -->
<g id="edge9" class="edge">
<title>x1&#45;&gt;...</title>
<path fill="none" stroke="black" d="M66.12,-181.43C85.53,-163 119.12,-131.07 141.56,-109.74"/>
<polygon fill="black" stroke="black" points="144.16,-112.11 148.99,-102.68 139.33,-107.03 144.16,-112.11"/>
</g>
<!-- node30 -->
<g id="node8" class="node">
<title>node30</title>
<ellipse fill="none" stroke="black" cx="165.44" cy="-34" rx="44.69" ry="18"/>
<text text-anchor="middle" x="165.44" y="-30.3" font-family="Times,serif" font-size="14.00">node30</text>
</g>
<!-- x1&#45;&gt;node30 -->
<g id="edge13" class="edge">
<title>x1&#45;&gt;node30</title>
<path fill="none" stroke="black" d="M62.11,-179.87C81.8,-151.81 122.52,-93.76 146.23,-59.97"/>
<polygon fill="black" stroke="black" points="149.27,-61.72 152.15,-51.52 143.54,-57.7 149.27,-61.72"/>
</g>
<!-- x2 -->
<g id="node2" class="node">
<title>x2</title>
<ellipse fill="none" stroke="black" cx="49.8" cy="-142" rx="27" ry="18"/>
<text text-anchor="middle" x="49.8" y="-138.3" font-family="Times,serif" font-size="14.00">x2</text>
</g>
<!-- x2&#45;&gt;node1 -->
<g id="edge2" class="edge">
<title>x2&#45;&gt;node1</title>
<path fill="none" stroke="black" d="M72.17,-152.16C88.01,-159.68 109.97,-170.12 128.5,-178.92"/>
<polygon fill="black" stroke="black" points="127.01,-182.09 137.54,-183.22 130.01,-175.77 127.01,-182.09"/>
</g>
<!-- x2&#45;&gt;node2 -->
<g id="edge6" class="edge">
<title>x2&#45;&gt;node2</title>
<path fill="none" stroke="black" d="M76.87,-142C88.57,-142 102.75,-142 116.27,-142"/>
<polygon fill="black" stroke="black" points="116.42,-145.5 126.42,-142 116.42,-138.5 116.42,-145.5"/>
</g>
<!-- x2&#45;&gt;... -->
<g id="edge10" class="edge">
<title>x2&#45;&gt;...</title>
<path fill="none" stroke="black" d="M72.17,-131.84C89.52,-123.6 114.21,-111.87 133.69,-102.61"/>
<polygon fill="black" stroke="black" points="135.24,-105.75 142.77,-98.3 132.24,-99.43 135.24,-105.75"/>
</g>
<!-- x2&#45;&gt;node30 -->
<g id="edge14" class="edge">
<title>x2&#45;&gt;node30</title>
<path fill="none" stroke="black" d="M66.12,-127.43C84.98,-109.51 117.25,-78.84 139.66,-57.55"/>
<polygon fill="black" stroke="black" points="142.29,-59.88 147.13,-50.45 137.47,-54.8 142.29,-59.88"/>
</g>
<!-- .. -->
<g id="node3" class="node">
<title>..</title>
<ellipse fill="none" stroke="black" cx="49.8" cy="-88" rx="27" ry="18"/>
<text text-anchor="middle" x="49.8" y="-84.3" font-family="Times,serif" font-size="14.00">..</text>
</g>
<!-- ..&#45;&gt;node1 -->
<g id="edge3" class="edge">
<title>..&#45;&gt;node1</title>
<path fill="none" stroke="black" d="M66.12,-102.57C85.09,-120.59 117.63,-151.51 140.04,-172.81"/>
<polygon fill="black" stroke="black" points="137.85,-175.56 147.51,-179.91 142.67,-170.48 137.85,-175.56"/>
</g>
<!-- ..&#45;&gt;node2 -->
<g id="edge7" class="edge">
<title>..&#45;&gt;node2</title>
<path fill="none" stroke="black" d="M72.17,-98.16C88.01,-105.68 109.97,-116.12 128.5,-124.92"/>
<polygon fill="black" stroke="black" points="127.01,-128.09 137.54,-129.22 130.01,-121.77 127.01,-128.09"/>
</g>
<!-- ..&#45;&gt;... -->
<g id="edge11" class="edge">
<title>..&#45;&gt;...</title>
<path fill="none" stroke="black" d="M76.87,-88C91.92,-88 111.09,-88 127.66,-88"/>
<polygon fill="black" stroke="black" points="128.1,-91.5 138.1,-88 128.1,-84.5 128.1,-91.5"/>
</g>
<!-- ..&#45;&gt;node30 -->
<g id="edge15" class="edge">
<title>..&#45;&gt;node30</title>
<path fill="none" stroke="black" d="M72.17,-77.84C87.5,-70.56 108.57,-60.55 126.7,-51.93"/>
<polygon fill="black" stroke="black" points="128.33,-55.03 135.86,-47.58 125.33,-48.71 128.33,-55.03"/>
</g>
<!-- x784 -->
<g id="node4" class="node">
<title>x784</title>
<ellipse fill="none" stroke="black" cx="49.8" cy="-34" rx="33.6" ry="18"/>
<text text-anchor="middle" x="49.8" y="-30.3" font-family="Times,serif" font-size="14.00">x784</text>
</g>
<!-- x784&#45;&gt;node1 -->
<g id="edge4" class="edge">
<title>x784&#45;&gt;node1</title>
<path fill="none" stroke="black" d="M62.53,-50.73C82.42,-79.07 122.87,-136.74 146.38,-170.26"/>
<polygon fill="black" stroke="black" points="143.65,-172.46 152.26,-178.63 149.38,-168.44 143.65,-172.46"/>
</g>
<!-- x784&#45;&gt;node2 -->
<g id="edge8" class="edge">
<title>x784&#45;&gt;node2</title>
<path fill="none" stroke="black" d="M67.08,-49.47C86.18,-67.63 118.05,-97.91 140.09,-118.86"/>
<polygon fill="black" stroke="black" points="137.79,-121.5 147.45,-125.85 142.61,-116.42 137.79,-121.5"/>
</g>
<!-- x784&#45;&gt;... -->
<g id="edge12" class="edge">
<title>x784&#45;&gt;...</title>
<path fill="none" stroke="black" d="M75.46,-45.72C92.58,-53.85 115.51,-64.75 133.8,-73.44"/>
<polygon fill="black" stroke="black" points="132.36,-76.63 142.89,-77.76 135.36,-70.31 132.36,-76.63"/>
</g>
<!-- x784&#45;&gt;node30 -->
<g id="edge16" class="edge">
<title>x784&#45;&gt;node30</title>
<path fill="none" stroke="black" d="M83.67,-34C91.95,-34 101.07,-34 110.11,-34"/>
<polygon fill="black" stroke="black" points="110.23,-37.5 120.23,-34 110.23,-30.5 110.23,-37.5"/>
</g>
<!-- y -->
<g id="node9" class="node">
<title>y</title>
<ellipse fill="none" stroke="black" cx="307.29" cy="-115" rx="27" ry="18"/>
<text text-anchor="middle" x="307.29" y="-111.3" font-family="Times,serif" font-size="14.00">y</text>
</g>
<!-- node1&#45;&gt;y -->
<g id="edge17" class="edge">
<title>node1&#45;&gt;y</title>
<path fill="none" stroke="black" d="M190.48,-182.08C214.55,-168.14 251.59,-146.68 277.28,-131.8"/>
<polygon fill="black" stroke="black" points="279.28,-134.69 286.18,-126.65 275.77,-128.63 279.28,-134.69"/>
</g>
<!-- node2&#45;&gt;y -->
<g id="edge18" class="edge">
<title>node2&#45;&gt;y</title>
<path fill="none" stroke="black" d="M201.73,-135.19C223.01,-131.08 250.01,-125.87 271.24,-121.77"/>
<polygon fill="black" stroke="black" points="272,-125.18 281.15,-119.85 270.67,-118.31 272,-125.18"/>
</g>
<!-- ...&#45;&gt;y -->
<g id="edge19" class="edge">
<title>...&#45;&gt;y</title>
<path fill="none" stroke="black" d="M191.77,-92.89C213.94,-97.17 246.39,-103.44 271.09,-108.2"/>
<polygon fill="black" stroke="black" points="270.67,-111.69 281.15,-110.15 271.99,-104.81 270.67,-111.69"/>
</g>
<!-- node30&#45;&gt;y -->
<g id="edge20" class="edge">
<title>node30&#45;&gt;y</title>
<path fill="none" stroke="black" d="M191.77,-48.67C215.88,-62.64 252.14,-83.64 277.38,-98.26"/>
<polygon fill="black" stroke="black" points="275.73,-101.34 286.13,-103.33 279.23,-95.29 275.73,-101.34"/>
</g>
</g>
</svg>
