<?xml version="1.0" encoding="UTF-8" standalone="no"?>
<!DOCTYPE svg PUBLIC "-//W3C//DTD SVG 1.1//EN"
 "http://www.w3.org/Graphics/SVG/1.1/DTD/svg11.dtd">
<!-- Generated by graphviz version 2.50.0 (0)
 -->
<!-- Title: G Pages: 1 -->
<svg width="474pt" height="44pt"
 viewBox="0.00 0.00 474.48 44.00" xmlns="http://www.w3.org/2000/svg" xmlns:xlink="http://www.w3.org/1999/xlink">
<g id="graph0" class="graph" transform="scale(1 1) rotate(0) translate(4 40)">
<title>G</title>
<polygon fill="white" stroke="transparent" points="-4,4 -4,-40 470.48,-40 470.48,4 -4,4"/>
<!-- X -->
<g id="node1" class="node">
<title>X</title>
<ellipse fill="none" stroke="black" cx="27" cy="-18" rx="27" ry="18"/>
<text text-anchor="middle" x="27" y="-14.3" font-family="Times,serif" font-size="14.00">X</text>
</g>
<!-- X@Ŵ, &#160;&#160;&#160;bias=False -->
<g id="node2" class="node">
<title>X@Ŵ, &#160;&#160;&#160;bias=False</title>
<ellipse fill="none" stroke="black" cx="219.74" cy="-18" rx="100.98" ry="18"/>
<text text-anchor="middle" x="219.74" y="-14.3" font-family="Times,serif" font-size="14.00">X@Ŵ, &#160;&#160;&#160;bias=False</text>
</g>
<!-- X&#45;&gt;X@Ŵ, &#160;&#160;&#160;bias=False -->
<g id="edge1" class="edge">
<title>X&#45;&gt;X@Ŵ, &#160;&#160;&#160;bias=False</title>
<path fill="none" stroke="black" d="M54.12,-18C68.85,-18 88.36,-18 108.79,-18"/>
<polygon fill="black" stroke="black" points="108.88,-21.5 118.88,-18 108.88,-14.5 108.88,-21.5"/>
<text text-anchor="middle" x="86.5" y="-21.8" font-family="Times,serif" font-size="14.00">@Ŵ</text>
</g>
<!-- ŷ -->
<g id="node3" class="node">
<title>ŷ</title>
<ellipse fill="none" stroke="black" cx="439.48" cy="-18" rx="27" ry="18"/>
<text text-anchor="middle" x="439.48" y="-14.3" font-family="Times,serif" font-size="14.00">ŷ</text>
</g>
<!-- X@Ŵ, &#160;&#160;&#160;bias=False&#45;&gt;ŷ -->
<g id="edge2" class="edge">
<title>X@Ŵ, &#160;&#160;&#160;bias=False&#45;&gt;ŷ</title>
<path fill="none" stroke="black" d="M320.69,-18C349.84,-18 379.84,-18 402.27,-18"/>
<polygon fill="black" stroke="black" points="402.33,-21.5 412.33,-18 402.33,-14.5 402.33,-21.5"/>
<text text-anchor="middle" x="366.48" y="-21.8" font-family="Times,serif" font-size="14.00">identity</text>
</g>
</g>
</svg>
