<?xml version="1.0" encoding="UTF-8" standalone="no"?>
<!DOCTYPE svg PUBLIC "-//W3C//DTD SVG 1.1//EN"
 "http://www.w3.org/Graphics/SVG/1.1/DTD/svg11.dtd">
<!-- Generated by graphviz version 3.0.0 (20220315.2325)
 -->
<!-- Title: G Pages: 1 -->
<svg width="471pt" height="44pt"
 viewBox="0.00 0.00 470.98 44.00" xmlns="http://www.w3.org/2000/svg" xmlns:xlink="http://www.w3.org/1999/xlink">
<g id="graph0" class="graph" transform="scale(1 1) rotate(0) translate(4 40)">
<title>G</title>
<polygon fill="white" stroke="transparent" points="-4,4 -4,-40 466.98,-40 466.98,4 -4,4"/>
<!-- X -->
<g id="node1" class="node">
<title>X</title>
<ellipse fill="none" stroke="black" cx="27" cy="-18" rx="27" ry="18"/>
<text text-anchor="middle" x="27" y="-14.3" font-family="Times,serif" font-size="14.00">X</text>
</g>
<!-- X@β̂, &#160;&#160;&#160;bias=False -->
<g id="node2" class="node">
<title>X@β̂, &#160;&#160;&#160;bias=False</title>
<ellipse fill="none" stroke="black" cx="210.49" cy="-18" rx="97.48" ry="18"/>
<text text-anchor="middle" x="210.49" y="-14.3" font-family="Times,serif" font-size="14.00">X@β̂, &#160;&#160;&#160;bias=False</text>
</g>
<!-- X&#45;&gt;X@β̂, &#160;&#160;&#160;bias=False -->
<g id="edge1" class="edge">
<title>X&#45;&gt;X@β̂, &#160;&#160;&#160;bias=False</title>
<path fill="none" stroke="black" d="M54,-18C67.32,-18 84.51,-18 102.59,-18"/>
<polygon fill="black" stroke="black" points="102.71,-21.5 112.71,-18 102.71,-14.5 102.71,-21.5"/>
<text text-anchor="middle" x="83.5" y="-21.8" font-family="Times,serif" font-size="14.00">@β̂</text>
</g>
<!-- ŷ -->
<g id="node3" class="node">
<title>ŷ</title>
<ellipse fill="none" stroke="black" cx="435.98" cy="-18" rx="27" ry="18"/>
<text text-anchor="middle" x="435.98" y="-14.3" font-family="Times,serif" font-size="14.00">ŷ</text>
</g>
<!-- X@β̂, &#160;&#160;&#160;bias=False&#45;&gt;ŷ -->
<g id="edge2" class="edge">
<title>X@β̂, &#160;&#160;&#160;bias=False&#45;&gt;ŷ</title>
<path fill="none" stroke="black" d="M308.22,-18C340.28,-18 374.02,-18 398.63,-18"/>
<polygon fill="black" stroke="black" points="398.91,-21.5 408.91,-18 398.91,-14.5 398.91,-21.5"/>
<text text-anchor="middle" x="358.48" y="-21.8" font-family="Times,serif" font-size="14.00">indentity</text>
</g>
</g>
</svg>
