<?xml version="1.0" encoding="UTF-8" standalone="no"?>
<!DOCTYPE svg PUBLIC "-//W3C//DTD SVG 1.1//EN"
 "http://www.w3.org/Graphics/SVG/1.1/DTD/svg11.dtd">
<!-- Generated by graphviz version 2.50.0 (0)
 -->
<!-- Title: G Pages: 1 -->
<svg width="507pt" height="98pt"
 viewBox="0.00 0.00 506.88 98.00" xmlns="http://www.w3.org/2000/svg" xmlns:xlink="http://www.w3.org/1999/xlink">
<g id="graph0" class="graph" transform="scale(1 1) rotate(0) translate(4 94)">
<title>G</title>
<polygon fill="white" stroke="transparent" points="-4,4 -4,-94 502.88,-94 502.88,4 -4,4"/>
<!-- 1 -->
<g id="node1" class="node">
<title>1</title>
<ellipse fill="none" stroke="black" cx="27" cy="-72" rx="27" ry="18"/>
<text text-anchor="middle" x="27" y="-68.3" font-family="Times,serif" font-size="14.00">1</text>
</g>
<!-- β̂₀ + xᵢ*β̂₁, &#160;&#160;&#160;bias=False -->
<g id="node2" class="node">
<title>β̂₀ + xᵢ*β̂₁, &#160;&#160;&#160;bias=False</title>
<ellipse fill="none" stroke="black" cx="233.94" cy="-45" rx="118.88" ry="18"/>
<text text-anchor="middle" x="233.94" y="-41.3" font-family="Times,serif" font-size="14.00">β̂₀ + xᵢ*β̂₁, &#160;&#160;&#160;bias=False</text>
</g>
<!-- 1&#45;&gt;β̂₀ + xᵢ*β̂₁, &#160;&#160;&#160;bias=False -->
<g id="edge1" class="edge">
<title>1&#45;&gt;β̂₀ + xᵢ*β̂₁, &#160;&#160;&#160;bias=False</title>
<path fill="none" stroke="black" d="M53.54,-68.64C73.98,-65.94 104.04,-61.98 133.73,-58.07"/>
<polygon fill="black" stroke="black" points="134.31,-61.52 143.77,-56.75 133.4,-54.58 134.31,-61.52"/>
<text text-anchor="middle" x="84.5" y="-69.8" font-family="Times,serif" font-size="14.00">* β̂₀</text>
</g>
<!-- ŷᵢ -->
<g id="node4" class="node">
<title>ŷᵢ</title>
<ellipse fill="none" stroke="black" cx="471.88" cy="-45" rx="27" ry="18"/>
<text text-anchor="middle" x="471.88" y="-41.3" font-family="Times,serif" font-size="14.00">ŷᵢ</text>
</g>
<!-- β̂₀ + xᵢ*β̂₁, &#160;&#160;&#160;bias=False&#45;&gt;ŷᵢ -->
<g id="edge3" class="edge">
<title>β̂₀ + xᵢ*β̂₁, &#160;&#160;&#160;bias=False&#45;&gt;ŷᵢ</title>
<path fill="none" stroke="black" d="M352.91,-45C382.61,-45 412.31,-45 434.48,-45"/>
<polygon fill="black" stroke="black" points="434.73,-48.5 444.73,-45 434.73,-41.5 434.73,-48.5"/>
<text text-anchor="middle" x="398.88" y="-48.8" font-family="Times,serif" font-size="14.00">identity</text>
</g>
<!-- xᵢ -->
<g id="node3" class="node">
<title>xᵢ</title>
<ellipse fill="none" stroke="black" cx="27" cy="-18" rx="27" ry="18"/>
<text text-anchor="middle" x="27" y="-14.3" font-family="Times,serif" font-size="14.00">xᵢ</text>
</g>
<!-- xᵢ&#45;&gt;β̂₀ + xᵢ*β̂₁, &#160;&#160;&#160;bias=False -->
<g id="edge2" class="edge">
<title>xᵢ&#45;&gt;β̂₀ + xᵢ*β̂₁, &#160;&#160;&#160;bias=False</title>
<path fill="none" stroke="black" d="M53.54,-21.36C73.98,-24.06 104.04,-28.02 133.73,-31.93"/>
<polygon fill="black" stroke="black" points="133.4,-35.42 143.77,-33.25 134.31,-28.48 133.4,-35.42"/>
<text text-anchor="middle" x="84.5" y="-29.8" font-family="Times,serif" font-size="14.00">* β̂₁</text>
</g>
</g>
</svg>
