<?xml version="1.0" encoding="UTF-8" standalone="no"?>
<!DOCTYPE svg PUBLIC "-//W3C//DTD SVG 1.1//EN"
 "http://www.w3.org/Graphics/SVG/1.1/DTD/svg11.dtd">
<!-- Generated by graphviz version 3.0.0 (20220315.2325)
 -->
<!-- Title: G Pages: 1 -->
<svg width="512pt" height="435pt"
 viewBox="0.00 0.00 512.08 435.00" xmlns="http://www.w3.org/2000/svg" xmlns:xlink="http://www.w3.org/1999/xlink">
<g id="graph0" class="graph" transform="scale(1 1) rotate(0) translate(4 431)">
<title>G</title>
<polygon fill="white" stroke="transparent" points="-4,4 -4,-431 508.08,-431 508.08,4 -4,4"/>
<!-- 1 -->
<g id="node1" class="node">
<title>1</title>
<ellipse fill="none" stroke="black" cx="27" cy="-72" rx="27" ry="18"/>
<text text-anchor="middle" x="27" y="-68.3" font-family="Times,serif" font-size="14.00">1</text>
</g>
<!-- β̂₀ + xₙ*β̂₁, &#160;&#160;&#160;bias=False -->
<g id="node2" class="node">
<title>β̂₀ + xₙ*β̂₁, &#160;&#160;&#160;bias=False</title>
<ellipse fill="none" stroke="black" cx="236.54" cy="-58" rx="121.58" ry="18"/>
<text text-anchor="middle" x="236.54" y="-54.3" font-family="Times,serif" font-size="14.00">β̂₀ + xₙ*β̂₁, &#160;&#160;&#160;bias=False</text>
</g>
<!-- 1&#45;&gt;β̂₀ + xₙ*β̂₁, &#160;&#160;&#160;bias=False -->
<g id="edge1" class="edge">
<title>1&#45;&gt;β̂₀ + xₙ*β̂₁, &#160;&#160;&#160;bias=False</title>
<path fill="none" stroke="black" d="M54.28,-70.23C70.34,-69.14 92.15,-67.67 115.08,-66.13"/>
<polygon fill="black" stroke="black" points="115.57,-69.6 125.31,-65.44 115.1,-62.62 115.57,-69.6"/>
<text text-anchor="middle" x="84.5" y="-72.8" font-family="Times,serif" font-size="14.00">* β̂₀</text>
</g>
<!-- ŷₙ -->
<g id="node4" class="node">
<title>ŷₙ</title>
<ellipse fill="none" stroke="black" cx="477.08" cy="-58" rx="27" ry="18"/>
<text text-anchor="middle" x="477.08" y="-54.3" font-family="Times,serif" font-size="14.00">ŷₙ</text>
</g>
<!-- β̂₀ + xₙ*β̂₁, &#160;&#160;&#160;bias=False&#45;&gt;ŷₙ -->
<g id="edge3" class="edge">
<title>β̂₀ + xₙ*β̂₁, &#160;&#160;&#160;bias=False&#45;&gt;ŷₙ</title>
<path fill="none" stroke="black" d="M358.21,-58C388,-58 417.67,-58 439.8,-58"/>
<polygon fill="black" stroke="black" points="440.02,-61.5 450.02,-58 440.02,-54.5 440.02,-61.5"/>
<text text-anchor="middle" x="404.08" y="-61.8" font-family="Times,serif" font-size="14.00">identity</text>
</g>
<!-- xₙ -->
<g id="node3" class="node">
<title>xₙ</title>
<ellipse fill="none" stroke="black" cx="27" cy="-18" rx="27" ry="18"/>
<text text-anchor="middle" x="27" y="-14.3" font-family="Times,serif" font-size="14.00">xₙ</text>
</g>
<!-- xₙ&#45;&gt;β̂₀ + xₙ*β̂₁, &#160;&#160;&#160;bias=False -->
<g id="edge2" class="edge">
<title>xₙ&#45;&gt;β̂₀ + xₙ*β̂₁, &#160;&#160;&#160;bias=False</title>
<path fill="none" stroke="black" d="M53.03,-22.82C77.57,-27.55 116.36,-35.03 151.88,-41.88"/>
<polygon fill="black" stroke="black" points="151.31,-45.33 161.79,-43.79 152.64,-38.46 151.31,-45.33"/>
<text text-anchor="middle" x="84.5" y="-34.8" font-family="Times,serif" font-size="14.00">* β̂₁</text>
</g>
<!-- . -->
<g id="node5" class="node">
<title>.</title>
<ellipse fill="none" stroke="black" cx="27" cy="-193" rx="27" ry="18"/>
<text text-anchor="middle" x="27" y="-189.3" font-family="Times,serif" font-size="14.00">.</text>
</g>
<!-- .................................... -->
<g id="node6" class="node">
<title>....................................</title>
<ellipse fill="none" stroke="black" cx="236.54" cy="-139" rx="116.18" ry="18"/>
<text text-anchor="middle" x="236.54" y="-135.3" font-family="Times,serif" font-size="14.00">....................................</text>
</g>
<!-- .&#45;&gt;.................................... -->
<g id="edge4" class="edge">
<title>.&#45;&gt;....................................</title>
<path fill="none" stroke="black" d="M52.62,-186.59C80.54,-179.33 127.26,-167.17 166.5,-156.96"/>
<polygon fill="black" stroke="black" points="167.5,-160.32 176.3,-154.41 165.74,-153.55 167.5,-160.32"/>
<text text-anchor="middle" x="84.5" y="-184.8" font-family="Times,serif" font-size="14.00">* β̂₀</text>
</g>
<!-- ... -->
<g id="node8" class="node">
<title>...</title>
<ellipse fill="none" stroke="black" cx="477.08" cy="-139" rx="27" ry="18"/>
<text text-anchor="middle" x="477.08" y="-135.3" font-family="Times,serif" font-size="14.00">...</text>
</g>
<!-- ....................................&#45;&gt;... -->
<g id="edge6" class="edge">
<title>....................................&#45;&gt;...</title>
<path fill="none" stroke="black" d="M352.97,-139C384.52,-139 416.44,-139 439.87,-139"/>
<polygon fill="black" stroke="black" points="440,-142.5 450,-139 440,-135.5 440,-142.5"/>
<text text-anchor="middle" x="404.08" y="-142.8" font-family="Times,serif" font-size="14.00"> </text>
</g>
<!-- .. -->
<g id="node7" class="node">
<title>..</title>
<ellipse fill="none" stroke="black" cx="27" cy="-139" rx="27" ry="18"/>
<text text-anchor="middle" x="27" y="-135.3" font-family="Times,serif" font-size="14.00">..</text>
</g>
<!-- ..&#45;&gt;.................................... -->
<g id="edge5" class="edge">
<title>..&#45;&gt;....................................</title>
<path fill="none" stroke="black" d="M54.28,-139C69.16,-139 88.98,-139 110.04,-139"/>
<polygon fill="black" stroke="black" points="110.13,-142.5 120.13,-139 110.13,-135.5 110.13,-142.5"/>
<text text-anchor="middle" x="84.5" y="-142.8" font-family="Times,serif" font-size="14.00">* β̂₁</text>
</g>
<!-- 1  -->
<g id="node9" class="node">
<title>1 </title>
<ellipse fill="none" stroke="black" cx="27" cy="-301" rx="27" ry="18"/>
<text text-anchor="middle" x="27" y="-297.3" font-family="Times,serif" font-size="14.00">1 </text>
</g>
<!-- β̂₀ + x₂*β̂₁, &#160;&#160;&#160;bias=False -->
<g id="node10" class="node">
<title>β̂₀ + x₂*β̂₁, &#160;&#160;&#160;bias=False</title>
<ellipse fill="none" stroke="black" cx="236.54" cy="-274" rx="120.78" ry="18"/>
<text text-anchor="middle" x="236.54" y="-270.3" font-family="Times,serif" font-size="14.00">β̂₀ + x₂*β̂₁, &#160;&#160;&#160;bias=False</text>
</g>
<!-- 1 &#45;&gt;β̂₀ + x₂*β̂₁, &#160;&#160;&#160;bias=False -->
<g id="edge7" class="edge">
<title>1 &#45;&gt;β̂₀ + x₂*β̂₁, &#160;&#160;&#160;bias=False</title>
<path fill="none" stroke="black" d="M53.87,-297.64C74.46,-294.96 104.71,-291.02 134.65,-287.13"/>
<polygon fill="black" stroke="black" points="135.31,-290.57 144.77,-285.81 134.4,-283.63 135.31,-290.57"/>
<text text-anchor="middle" x="84.5" y="-298.8" font-family="Times,serif" font-size="14.00">* β̂₀</text>
</g>
<!-- ŷ₂ -->
<g id="node12" class="node">
<title>ŷ₂</title>
<ellipse fill="none" stroke="black" cx="477.08" cy="-274" rx="27" ry="18"/>
<text text-anchor="middle" x="477.08" y="-270.3" font-family="Times,serif" font-size="14.00">ŷ₂</text>
</g>
<!-- β̂₀ + x₂*β̂₁, &#160;&#160;&#160;bias=False&#45;&gt;ŷ₂ -->
<g id="edge9" class="edge">
<title>β̂₀ + x₂*β̂₁, &#160;&#160;&#160;bias=False&#45;&gt;ŷ₂</title>
<path fill="none" stroke="black" d="M357.51,-274C387.42,-274 417.27,-274 439.54,-274"/>
<polygon fill="black" stroke="black" points="439.83,-277.5 449.83,-274 439.83,-270.5 439.83,-277.5"/>
<text text-anchor="middle" x="404.08" y="-277.8" font-family="Times,serif" font-size="14.00">identity</text>
</g>
<!-- x₂ -->
<g id="node11" class="node">
<title>x₂</title>
<ellipse fill="none" stroke="black" cx="27" cy="-247" rx="27" ry="18"/>
<text text-anchor="middle" x="27" y="-243.3" font-family="Times,serif" font-size="14.00">x₂</text>
</g>
<!-- x₂&#45;&gt;β̂₀ + x₂*β̂₁, &#160;&#160;&#160;bias=False -->
<g id="edge8" class="edge">
<title>x₂&#45;&gt;β̂₀ + x₂*β̂₁, &#160;&#160;&#160;bias=False</title>
<path fill="none" stroke="black" d="M53.87,-250.36C74.46,-253.04 104.71,-256.98 134.65,-260.87"/>
<polygon fill="black" stroke="black" points="134.4,-264.37 144.77,-262.19 135.31,-257.43 134.4,-264.37"/>
<text text-anchor="middle" x="84.5" y="-258.8" font-family="Times,serif" font-size="14.00">* β̂₁</text>
</g>
<!-- 1 &#160; -->
<g id="node13" class="node">
<title>1 &#160;</title>
<ellipse fill="none" stroke="black" cx="27" cy="-409" rx="27" ry="18"/>
<text text-anchor="middle" x="27" y="-405.3" font-family="Times,serif" font-size="14.00">1 &#160;</text>
</g>
<!-- β̂₀ + x₁*β̂₁, &#160;&#160;&#160;bias=False -->
<g id="node14" class="node">
<title>β̂₀ + x₁*β̂₁, &#160;&#160;&#160;bias=False</title>
<ellipse fill="none" stroke="black" cx="236.54" cy="-382" rx="120.78" ry="18"/>
<text text-anchor="middle" x="236.54" y="-378.3" font-family="Times,serif" font-size="14.00">β̂₀ + x₁*β̂₁, &#160;&#160;&#160;bias=False</text>
</g>
<!-- 1 &#160;&#45;&gt;β̂₀ + x₁*β̂₁, &#160;&#160;&#160;bias=False -->
<g id="edge10" class="edge">
<title>1 &#160;&#45;&gt;β̂₀ + x₁*β̂₁, &#160;&#160;&#160;bias=False</title>
<path fill="none" stroke="black" d="M53.87,-405.64C74.46,-402.96 104.71,-399.02 134.65,-395.13"/>
<polygon fill="black" stroke="black" points="135.31,-398.57 144.77,-393.81 134.4,-391.63 135.31,-398.57"/>
<text text-anchor="middle" x="84.5" y="-406.8" font-family="Times,serif" font-size="14.00">* β̂₀</text>
</g>
<!-- ŷ₁ -->
<g id="node16" class="node">
<title>ŷ₁</title>
<ellipse fill="none" stroke="black" cx="477.08" cy="-382" rx="27" ry="18"/>
<text text-anchor="middle" x="477.08" y="-378.3" font-family="Times,serif" font-size="14.00">ŷ₁</text>
</g>
<!-- β̂₀ + x₁*β̂₁, &#160;&#160;&#160;bias=False&#45;&gt;ŷ₁ -->
<g id="edge12" class="edge">
<title>β̂₀ + x₁*β̂₁, &#160;&#160;&#160;bias=False&#45;&gt;ŷ₁</title>
<path fill="none" stroke="black" d="M357.51,-382C387.42,-382 417.27,-382 439.54,-382"/>
<polygon fill="black" stroke="black" points="439.83,-385.5 449.83,-382 439.83,-378.5 439.83,-385.5"/>
<text text-anchor="middle" x="404.08" y="-385.8" font-family="Times,serif" font-size="14.00">identity</text>
</g>
<!-- x₁ -->
<g id="node15" class="node">
<title>x₁</title>
<ellipse fill="none" stroke="black" cx="27" cy="-355" rx="27" ry="18"/>
<text text-anchor="middle" x="27" y="-351.3" font-family="Times,serif" font-size="14.00">x₁</text>
</g>
<!-- x₁&#45;&gt;β̂₀ + x₁*β̂₁, &#160;&#160;&#160;bias=False -->
<g id="edge11" class="edge">
<title>x₁&#45;&gt;β̂₀ + x₁*β̂₁, &#160;&#160;&#160;bias=False</title>
<path fill="none" stroke="black" d="M53.87,-358.36C74.46,-361.04 104.71,-364.98 134.65,-368.87"/>
<polygon fill="black" stroke="black" points="134.4,-372.37 144.77,-370.19 135.31,-365.43 134.4,-372.37"/>
<text text-anchor="middle" x="84.5" y="-366.8" font-family="Times,serif" font-size="14.00">* β̂₁</text>
</g>
</g>
</svg>
