<?xml version="1.0" encoding="UTF-8" standalone="no"?>
<!DOCTYPE svg PUBLIC "-//W3C//DTD SVG 1.1//EN"
 "http://www.w3.org/Graphics/SVG/1.1/DTD/svg11.dtd">
<!-- Generated by graphviz version 3.0.0 (20220315.2325)
 -->
<!-- Title: G Pages: 1 -->
<svg width="459pt" height="44pt"
 viewBox="0.00 0.00 458.58 44.00" xmlns="http://www.w3.org/2000/svg" xmlns:xlink="http://www.w3.org/1999/xlink">
<g id="graph0" class="graph" transform="scale(1 1) rotate(0) translate(4 40)">
<title>G</title>
<polygon fill="white" stroke="transparent" points="-4,4 -4,-40 454.58,-40 454.58,4 -4,4"/>
<!-- x -->
<g id="node1" class="node">
<title>x</title>
<ellipse fill="none" stroke="black" cx="27" cy="-18" rx="27" ry="18"/>
<text text-anchor="middle" x="27" y="-14.3" font-family="Times,serif" font-size="14.00">x</text>
</g>
<!-- x*β̂₁, &#160;&#160;&#160;bias=True -->
<g id="node2" class="node">
<title>x*β̂₁, &#160;&#160;&#160;bias=True</title>
<ellipse fill="none" stroke="black" cx="203.29" cy="-18" rx="92.08" ry="18"/>
<text text-anchor="middle" x="203.29" y="-14.3" font-family="Times,serif" font-size="14.00">x*β̂₁, &#160;&#160;&#160;bias=True</text>
</g>
<!-- x&#45;&gt;x*β̂₁, &#160;&#160;&#160;bias=True -->
<g id="edge1" class="edge">
<title>x&#45;&gt;x*β̂₁, &#160;&#160;&#160;bias=True</title>
<path fill="none" stroke="black" d="M54.09,-18C66.95,-18 83.38,-18 100.58,-18"/>
<polygon fill="black" stroke="black" points="100.78,-21.5 110.78,-18 100.78,-14.5 100.78,-21.5"/>
<text text-anchor="middle" x="82.5" y="-21.8" font-family="Times,serif" font-size="14.00">*β̂₁</text>
</g>
<!-- ŷ -->
<g id="node3" class="node">
<title>ŷ</title>
<ellipse fill="none" stroke="black" cx="423.58" cy="-18" rx="27" ry="18"/>
<text text-anchor="middle" x="423.58" y="-14.3" font-family="Times,serif" font-size="14.00">ŷ</text>
</g>
<!-- x*β̂₁, &#160;&#160;&#160;bias=True&#45;&gt;ŷ -->
<g id="edge2" class="edge">
<title>x*β̂₁, &#160;&#160;&#160;bias=True&#45;&gt;ŷ</title>
<path fill="none" stroke="black" d="M295.6,-18C327.5,-18 361.48,-18 386.26,-18"/>
<polygon fill="black" stroke="black" points="386.28,-21.5 396.28,-18 386.28,-14.5 386.28,-21.5"/>
<text text-anchor="middle" x="346.08" y="-21.8" font-family="Times,serif" font-size="14.00">indentity</text>
</g>
</g>
</svg>
