<?xml version="1.0" encoding="UTF-8" standalone="no"?>
<!DOCTYPE svg PUBLIC "-//W3C//DTD SVG 1.1//EN"
 "http://www.w3.org/Graphics/SVG/1.1/DTD/svg11.dtd">
<!-- Generated by graphviz version 2.50.0 (0)
 -->
<!-- Title: G Pages: 1 -->
<svg width="470pt" height="44pt"
 viewBox="0.00 0.00 469.68 44.00" xmlns="http://www.w3.org/2000/svg" xmlns:xlink="http://www.w3.org/1999/xlink">
<g id="graph0" class="graph" transform="scale(1 1) rotate(0) translate(4 40)">
<title>G</title>
<polygon fill="white" stroke="transparent" points="-4,4 -4,-40 465.68,-40 465.68,4 -4,4"/>
<!-- X -->
<g id="node1" class="node">
<title>X</title>
<ellipse fill="none" stroke="black" cx="27" cy="-18" rx="27" ry="18"/>
<text text-anchor="middle" x="27" y="-14.3" font-family="Times,serif" font-size="14.00">X</text>
</g>
<!-- X@β̂, &#160;&#160;&#160;bias=False -->
<g id="node2" class="node">
<title>X@β̂, &#160;&#160;&#160;bias=False</title>
<ellipse fill="none" stroke="black" cx="209.84" cy="-18" rx="96.68" ry="18"/>
<text text-anchor="middle" x="209.84" y="-14.3" font-family="Times,serif" font-size="14.00">X@β̂, &#160;&#160;&#160;bias=False</text>
</g>
<!-- X&#45;&gt;X@β̂, &#160;&#160;&#160;bias=False -->
<g id="edge1" class="edge">
<title>X&#45;&gt;X@β̂, &#160;&#160;&#160;bias=False</title>
<path fill="none" stroke="black" d="M54.3,-18C67.6,-18 84.73,-18 102.71,-18"/>
<polygon fill="black" stroke="black" points="102.77,-21.5 112.77,-18 102.77,-14.5 102.77,-21.5"/>
<text text-anchor="middle" x="83.5" y="-21.8" font-family="Times,serif" font-size="14.00">@β̂</text>
</g>
<!-- ŷ -->
<g id="node3" class="node">
<title>ŷ</title>
<ellipse fill="none" stroke="black" cx="434.68" cy="-18" rx="27" ry="18"/>
<text text-anchor="middle" x="434.68" y="-14.3" font-family="Times,serif" font-size="14.00">ŷ</text>
</g>
<!-- X@β̂, &#160;&#160;&#160;bias=False&#45;&gt;ŷ -->
<g id="edge2" class="edge">
<title>X@β̂, &#160;&#160;&#160;bias=False&#45;&gt;ŷ</title>
<path fill="none" stroke="black" d="M306.96,-18C338.98,-18 372.71,-18 397.32,-18"/>
<polygon fill="black" stroke="black" points="397.61,-21.5 407.61,-18 397.61,-14.5 397.61,-21.5"/>
<text text-anchor="middle" x="357.18" y="-21.8" font-family="Times,serif" font-size="14.00">indentity</text>
</g>
</g>
</svg>
