<?xml version="1.0" encoding="UTF-8" standalone="no"?>
<!DOCTYPE svg PUBLIC "-//W3C//DTD SVG 1.1//EN"
 "http://www.w3.org/Graphics/SVG/1.1/DTD/svg11.dtd">
<!-- Generated by graphviz version 3.0.0 (20220315.2325)
 -->
<!-- Title: G Pages: 1 -->
<svg width="508pt" height="98pt"
 viewBox="0.00 0.00 508.18 98.00" xmlns="http://www.w3.org/2000/svg" xmlns:xlink="http://www.w3.org/1999/xlink">
<g id="graph0" class="graph" transform="scale(1 1) rotate(0) translate(4 94)">
<title>G</title>
<polygon fill="white" stroke="transparent" points="-4,4 -4,-94 504.18,-94 504.18,4 -4,4"/>
<!-- 1 -->
<g id="node1" class="node">
<title>1</title>
<ellipse fill="none" stroke="black" cx="27" cy="-72" rx="27" ry="18"/>
<text text-anchor="middle" x="27" y="-68.3" font-family="Times,serif" font-size="14.00">1</text>
</g>
<!-- β̂₀ + xᵢ*β̂₁, &#160;&#160;&#160;bias=False -->
<g id="node2" class="node">
<title>β̂₀ + xᵢ*β̂₁, &#160;&#160;&#160;bias=False</title>
<ellipse fill="none" stroke="black" cx="234.59" cy="-45" rx="119.68" ry="18"/>
<text text-anchor="middle" x="234.59" y="-41.3" font-family="Times,serif" font-size="14.00">β̂₀ + xᵢ*β̂₁, &#160;&#160;&#160;bias=False</text>
</g>
<!-- 1&#45;&gt;β̂₀ + xᵢ*β̂₁, &#160;&#160;&#160;bias=False -->
<g id="edge1" class="edge">
<title>1&#45;&gt;β̂₀ + xᵢ*β̂₁, &#160;&#160;&#160;bias=False</title>
<path fill="none" stroke="black" d="M53.62,-68.64C74.03,-65.96 103.99,-62.02 133.64,-58.13"/>
<polygon fill="black" stroke="black" points="134.21,-61.58 143.67,-56.81 133.3,-54.64 134.21,-61.58"/>
<text text-anchor="middle" x="84.5" y="-69.8" font-family="Times,serif" font-size="14.00">* β̂₀</text>
</g>
<!-- ŷᵢ -->
<g id="node4" class="node">
<title>ŷᵢ</title>
<ellipse fill="none" stroke="black" cx="473.18" cy="-45" rx="27" ry="18"/>
<text text-anchor="middle" x="473.18" y="-41.3" font-family="Times,serif" font-size="14.00">ŷᵢ</text>
</g>
<!-- β̂₀ + xᵢ*β̂₁, &#160;&#160;&#160;bias=False&#45;&gt;ŷᵢ -->
<g id="edge3" class="edge">
<title>β̂₀ + xᵢ*β̂₁, &#160;&#160;&#160;bias=False&#45;&gt;ŷᵢ</title>
<path fill="none" stroke="black" d="M354.23,-45C383.96,-45 413.65,-45 435.81,-45"/>
<polygon fill="black" stroke="black" points="436.05,-48.5 446.05,-45 436.05,-41.5 436.05,-48.5"/>
<text text-anchor="middle" x="400.18" y="-48.8" font-family="Times,serif" font-size="14.00">identity</text>
</g>
<!-- xᵢ -->
<g id="node3" class="node">
<title>xᵢ</title>
<ellipse fill="none" stroke="black" cx="27" cy="-18" rx="27" ry="18"/>
<text text-anchor="middle" x="27" y="-14.3" font-family="Times,serif" font-size="14.00">xᵢ</text>
</g>
<!-- xᵢ&#45;&gt;β̂₀ + xᵢ*β̂₁, &#160;&#160;&#160;bias=False -->
<g id="edge2" class="edge">
<title>xᵢ&#45;&gt;β̂₀ + xᵢ*β̂₁, &#160;&#160;&#160;bias=False</title>
<path fill="none" stroke="black" d="M53.62,-21.36C74.03,-24.04 103.99,-27.98 133.64,-31.87"/>
<polygon fill="black" stroke="black" points="133.3,-35.36 143.67,-33.19 134.21,-28.42 133.3,-35.36"/>
<text text-anchor="middle" x="84.5" y="-29.8" font-family="Times,serif" font-size="14.00">* β̂₁</text>
</g>
</g>
</svg>
