<?xml version="1.0" encoding="UTF-8" standalone="no"?>
<!DOCTYPE svg PUBLIC "-//W3C//DTD SVG 1.1//EN"
 "http://www.w3.org/Graphics/SVG/1.1/DTD/svg11.dtd">
<!-- Generated by graphviz version 2.50.0 (0)
 -->
<!-- Title: G Pages: 1 -->
<svg width="503pt" height="98pt"
 viewBox="0.00 0.00 502.98 98.00" xmlns="http://www.w3.org/2000/svg" xmlns:xlink="http://www.w3.org/1999/xlink">
<g id="graph0" class="graph" transform="scale(1 1) rotate(0) translate(4 94)">
<title>G</title>
<polygon fill="white" stroke="transparent" points="-4,4 -4,-94 498.98,-94 498.98,4 -4,4"/>
<!-- 1 -->
<g id="node1" class="node">
<title>1</title>
<ellipse fill="none" stroke="black" cx="27" cy="-72" rx="27" ry="18"/>
<text text-anchor="middle" x="27" y="-68.3" font-family="Times,serif" font-size="14.00">1</text>
</g>
<!-- β̂₀ + x*β̂₁, &#160;&#160;&#160;bias=False -->
<g id="node2" class="node">
<title>β̂₀ + x*β̂₁, &#160;&#160;&#160;bias=False</title>
<ellipse fill="none" stroke="black" cx="231.99" cy="-45" rx="116.98" ry="18"/>
<text text-anchor="middle" x="231.99" y="-41.3" font-family="Times,serif" font-size="14.00">β̂₀ + x*β̂₁, &#160;&#160;&#160;bias=False</text>
</g>
<!-- 1&#45;&gt;β̂₀ + x*β̂₁, &#160;&#160;&#160;bias=False -->
<g id="edge1" class="edge">
<title>1&#45;&gt;β̂₀ + x*β̂₁, &#160;&#160;&#160;bias=False</title>
<path fill="none" stroke="black" d="M53.71,-68.58C74.03,-65.88 103.76,-61.92 133.1,-58.02"/>
<polygon fill="black" stroke="black" points="133.56,-61.49 143.02,-56.7 132.64,-54.55 133.56,-61.49"/>
<text text-anchor="middle" x="84.5" y="-68.8" font-family="Times,serif" font-size="14.00">* β̂₀</text>
</g>
<!-- ŷ -->
<g id="node4" class="node">
<title>ŷ</title>
<ellipse fill="none" stroke="black" cx="467.98" cy="-45" rx="27" ry="18"/>
<text text-anchor="middle" x="467.98" y="-41.3" font-family="Times,serif" font-size="14.00">ŷ</text>
</g>
<!-- β̂₀ + x*β̂₁, &#160;&#160;&#160;bias=False&#45;&gt;ŷ -->
<g id="edge3" class="edge">
<title>β̂₀ + x*β̂₁, &#160;&#160;&#160;bias=False&#45;&gt;ŷ</title>
<path fill="none" stroke="black" d="M349.3,-45C378.87,-45 408.5,-45 430.63,-45"/>
<polygon fill="black" stroke="black" points="430.86,-48.5 440.86,-45 430.86,-41.5 430.86,-48.5"/>
<text text-anchor="middle" x="394.98" y="-48.8" font-family="Times,serif" font-size="14.00">identity</text>
</g>
<!-- x -->
<g id="node3" class="node">
<title>x</title>
<ellipse fill="none" stroke="black" cx="27" cy="-18" rx="27" ry="18"/>
<text text-anchor="middle" x="27" y="-14.3" font-family="Times,serif" font-size="14.00">x</text>
</g>
<!-- x&#45;&gt;β̂₀ + x*β̂₁, &#160;&#160;&#160;bias=False -->
<g id="edge2" class="edge">
<title>x&#45;&gt;β̂₀ + x*β̂₁, &#160;&#160;&#160;bias=False</title>
<path fill="none" stroke="black" d="M53.71,-21.42C74.03,-24.12 103.76,-28.08 133.1,-31.98"/>
<polygon fill="black" stroke="black" points="132.64,-35.45 143.02,-33.3 133.56,-28.51 132.64,-35.45"/>
<text text-anchor="middle" x="84.5" y="-29.8" font-family="Times,serif" font-size="14.00">* β̂₁</text>
</g>
</g>
</svg>
