<?xml version="1.0" encoding="UTF-8" standalone="no"?>
<!DOCTYPE svg PUBLIC "-//W3C//DTD SVG 1.1//EN"
 "http://www.w3.org/Graphics/SVG/1.1/DTD/svg11.dtd">
<!-- Generated by graphviz version 2.50.0 (0)
 -->
<!-- Title: G Pages: 1 -->
<svg width="511pt" height="435pt"
 viewBox="0.00 0.00 510.78 435.00" xmlns="http://www.w3.org/2000/svg" xmlns:xlink="http://www.w3.org/1999/xlink">
<g id="graph0" class="graph" transform="scale(1 1) rotate(0) translate(4 431)">
<title>G</title>
<polygon fill="white" stroke="transparent" points="-4,4 -4,-431 506.78,-431 506.78,4 -4,4"/>
<!-- 1 -->
<g id="node1" class="node">
<title>1</title>
<ellipse fill="none" stroke="black" cx="27" cy="-72" rx="27" ry="18"/>
<text text-anchor="middle" x="27" y="-68.3" font-family="Times,serif" font-size="14.00">1</text>
</g>
<!-- β̂₀ + xₙ*β̂₁, &#160;&#160;&#160;bias=False -->
<g id="node2" class="node">
<title>β̂₀ + xₙ*β̂₁, &#160;&#160;&#160;bias=False</title>
<ellipse fill="none" stroke="black" cx="235.89" cy="-58" rx="120.78" ry="18"/>
<text text-anchor="middle" x="235.89" y="-54.3" font-family="Times,serif" font-size="14.00">β̂₀ + xₙ*β̂₁, &#160;&#160;&#160;bias=False</text>
</g>
<!-- 1&#45;&gt;β̂₀ + xₙ*β̂₁, &#160;&#160;&#160;bias=False -->
<g id="edge1" class="edge">
<title>1&#45;&gt;β̂₀ + xₙ*β̂₁, &#160;&#160;&#160;bias=False</title>
<path fill="none" stroke="black" d="M54.2,-70.23C70.3,-69.14 92.21,-67.66 115.21,-66.1"/>
<polygon fill="black" stroke="black" points="115.74,-69.57 125.48,-65.4 115.26,-62.59 115.74,-69.57"/>
<text text-anchor="middle" x="84.5" y="-72.8" font-family="Times,serif" font-size="14.00">* β̂₀</text>
</g>
<!-- ŷₙ -->
<g id="node4" class="node">
<title>ŷₙ</title>
<ellipse fill="none" stroke="black" cx="475.78" cy="-58" rx="27" ry="18"/>
<text text-anchor="middle" x="475.78" y="-54.3" font-family="Times,serif" font-size="14.00">ŷₙ</text>
</g>
<!-- β̂₀ + xₙ*β̂₁, &#160;&#160;&#160;bias=False&#45;&gt;ŷₙ -->
<g id="edge3" class="edge">
<title>β̂₀ + xₙ*β̂₁, &#160;&#160;&#160;bias=False&#45;&gt;ŷₙ</title>
<path fill="none" stroke="black" d="M356.88,-58C386.65,-58 416.33,-58 438.47,-58"/>
<polygon fill="black" stroke="black" points="438.69,-61.5 448.69,-58 438.69,-54.5 438.69,-61.5"/>
<text text-anchor="middle" x="402.78" y="-61.8" font-family="Times,serif" font-size="14.00">identity</text>
</g>
<!-- xₙ -->
<g id="node3" class="node">
<title>xₙ</title>
<ellipse fill="none" stroke="black" cx="27" cy="-18" rx="27" ry="18"/>
<text text-anchor="middle" x="27" y="-14.3" font-family="Times,serif" font-size="14.00">xₙ</text>
</g>
<!-- xₙ&#45;&gt;β̂₀ + xₙ*β̂₁, &#160;&#160;&#160;bias=False -->
<g id="edge2" class="edge">
<title>xₙ&#45;&gt;β̂₀ + xₙ*β̂₁, &#160;&#160;&#160;bias=False</title>
<path fill="none" stroke="black" d="M53.37,-22.9C77.83,-27.63 116.21,-35.05 151.4,-41.86"/>
<polygon fill="black" stroke="black" points="150.74,-45.29 161.22,-43.76 152.07,-38.42 150.74,-45.29"/>
<text text-anchor="middle" x="84.5" y="-34.8" font-family="Times,serif" font-size="14.00">* β̂₁</text>
</g>
<!-- . -->
<g id="node5" class="node">
<title>.</title>
<ellipse fill="none" stroke="black" cx="27" cy="-193" rx="27" ry="18"/>
<text text-anchor="middle" x="27" y="-189.3" font-family="Times,serif" font-size="14.00">.</text>
</g>
<!-- .................................... -->
<g id="node6" class="node">
<title>....................................</title>
<ellipse fill="none" stroke="black" cx="235.89" cy="-139" rx="116.18" ry="18"/>
<text text-anchor="middle" x="235.89" y="-135.3" font-family="Times,serif" font-size="14.00">....................................</text>
</g>
<!-- .&#45;&gt;.................................... -->
<g id="edge4" class="edge">
<title>.&#45;&gt;....................................</title>
<path fill="none" stroke="black" d="M52.55,-186.59C80.27,-179.36 126.62,-167.26 165.65,-157.07"/>
<polygon fill="black" stroke="black" points="166.61,-160.44 175.4,-154.53 164.84,-153.67 166.61,-160.44"/>
<text text-anchor="middle" x="84.5" y="-184.8" font-family="Times,serif" font-size="14.00">* β̂₀</text>
</g>
<!-- ... -->
<g id="node8" class="node">
<title>...</title>
<ellipse fill="none" stroke="black" cx="475.78" cy="-139" rx="27" ry="18"/>
<text text-anchor="middle" x="475.78" y="-135.3" font-family="Times,serif" font-size="14.00">...</text>
</g>
<!-- ....................................&#45;&gt;... -->
<g id="edge6" class="edge">
<title>....................................&#45;&gt;...</title>
<path fill="none" stroke="black" d="M352.35,-139C383.56,-139 415.09,-139 438.33,-139"/>
<polygon fill="black" stroke="black" points="438.4,-142.5 448.4,-139 438.4,-135.5 438.4,-142.5"/>
<text text-anchor="middle" x="402.78" y="-142.8" font-family="Times,serif" font-size="14.00"> </text>
</g>
<!-- .. -->
<g id="node7" class="node">
<title>..</title>
<ellipse fill="none" stroke="black" cx="27" cy="-139" rx="27" ry="18"/>
<text text-anchor="middle" x="27" y="-135.3" font-family="Times,serif" font-size="14.00">..</text>
</g>
<!-- ..&#45;&gt;.................................... -->
<g id="edge5" class="edge">
<title>..&#45;&gt;....................................</title>
<path fill="none" stroke="black" d="M54.2,-139C68.87,-139 88.36,-139 109.1,-139"/>
<polygon fill="black" stroke="black" points="109.37,-142.5 119.37,-139 109.37,-135.5 109.37,-142.5"/>
<text text-anchor="middle" x="84.5" y="-142.8" font-family="Times,serif" font-size="14.00">* β̂₁</text>
</g>
<!-- 1  -->
<g id="node9" class="node">
<title>1 </title>
<ellipse fill="none" stroke="black" cx="27" cy="-301" rx="27" ry="18"/>
<text text-anchor="middle" x="27" y="-297.3" font-family="Times,serif" font-size="14.00">1 </text>
</g>
<!-- β̂₀ + x₂*β̂₁, &#160;&#160;&#160;bias=False -->
<g id="node10" class="node">
<title>β̂₀ + x₂*β̂₁, &#160;&#160;&#160;bias=False</title>
<ellipse fill="none" stroke="black" cx="235.89" cy="-274" rx="120.48" ry="18"/>
<text text-anchor="middle" x="235.89" y="-270.3" font-family="Times,serif" font-size="14.00">β̂₀ + x₂*β̂₁, &#160;&#160;&#160;bias=False</text>
</g>
<!-- 1 &#45;&gt;β̂₀ + x₂*β̂₁, &#160;&#160;&#160;bias=False -->
<g id="edge7" class="edge">
<title>1 &#45;&gt;β̂₀ + x₂*β̂₁, &#160;&#160;&#160;bias=False</title>
<path fill="none" stroke="black" d="M53.78,-297.64C74.32,-294.96 104.47,-291.02 134.31,-287.13"/>
<polygon fill="black" stroke="black" points="134.94,-290.57 144.4,-285.81 134.04,-283.63 134.94,-290.57"/>
<text text-anchor="middle" x="84.5" y="-298.8" font-family="Times,serif" font-size="14.00">* β̂₀</text>
</g>
<!-- ŷ₂ -->
<g id="node12" class="node">
<title>ŷ₂</title>
<ellipse fill="none" stroke="black" cx="475.78" cy="-274" rx="27" ry="18"/>
<text text-anchor="middle" x="475.78" y="-270.3" font-family="Times,serif" font-size="14.00">ŷ₂</text>
</g>
<!-- β̂₀ + x₂*β̂₁, &#160;&#160;&#160;bias=False&#45;&gt;ŷ₂ -->
<g id="edge9" class="edge">
<title>β̂₀ + x₂*β̂₁, &#160;&#160;&#160;bias=False&#45;&gt;ŷ₂</title>
<path fill="none" stroke="black" d="M356.18,-274C386.07,-274 415.93,-274 438.21,-274"/>
<polygon fill="black" stroke="black" points="438.51,-277.5 448.51,-274 438.51,-270.5 438.51,-277.5"/>
<text text-anchor="middle" x="402.78" y="-277.8" font-family="Times,serif" font-size="14.00">identity</text>
</g>
<!-- x₂ -->
<g id="node11" class="node">
<title>x₂</title>
<ellipse fill="none" stroke="black" cx="27" cy="-247" rx="27" ry="18"/>
<text text-anchor="middle" x="27" y="-243.3" font-family="Times,serif" font-size="14.00">x₂</text>
</g>
<!-- x₂&#45;&gt;β̂₀ + x₂*β̂₁, &#160;&#160;&#160;bias=False -->
<g id="edge8" class="edge">
<title>x₂&#45;&gt;β̂₀ + x₂*β̂₁, &#160;&#160;&#160;bias=False</title>
<path fill="none" stroke="black" d="M53.78,-250.36C74.32,-253.04 104.47,-256.98 134.31,-260.87"/>
<polygon fill="black" stroke="black" points="134.04,-264.37 144.4,-262.19 134.94,-257.43 134.04,-264.37"/>
<text text-anchor="middle" x="84.5" y="-258.8" font-family="Times,serif" font-size="14.00">* β̂₁</text>
</g>
<!-- 1 &#160; -->
<g id="node13" class="node">
<title>1 &#160;</title>
<ellipse fill="none" stroke="black" cx="27" cy="-409" rx="27" ry="18"/>
<text text-anchor="middle" x="27" y="-405.3" font-family="Times,serif" font-size="14.00">1 &#160;</text>
</g>
<!-- β̂₀ + x₁*β̂₁, &#160;&#160;&#160;bias=False -->
<g id="node14" class="node">
<title>β̂₀ + x₁*β̂₁, &#160;&#160;&#160;bias=False</title>
<ellipse fill="none" stroke="black" cx="235.89" cy="-382" rx="120.48" ry="18"/>
<text text-anchor="middle" x="235.89" y="-378.3" font-family="Times,serif" font-size="14.00">β̂₀ + x₁*β̂₁, &#160;&#160;&#160;bias=False</text>
</g>
<!-- 1 &#160;&#45;&gt;β̂₀ + x₁*β̂₁, &#160;&#160;&#160;bias=False -->
<g id="edge10" class="edge">
<title>1 &#160;&#45;&gt;β̂₀ + x₁*β̂₁, &#160;&#160;&#160;bias=False</title>
<path fill="none" stroke="black" d="M53.78,-405.64C74.32,-402.96 104.47,-399.02 134.31,-395.13"/>
<polygon fill="black" stroke="black" points="134.94,-398.57 144.4,-393.81 134.04,-391.63 134.94,-398.57"/>
<text text-anchor="middle" x="84.5" y="-406.8" font-family="Times,serif" font-size="14.00">* β̂₀</text>
</g>
<!-- ŷ₁ -->
<g id="node16" class="node">
<title>ŷ₁</title>
<ellipse fill="none" stroke="black" cx="475.78" cy="-382" rx="27" ry="18"/>
<text text-anchor="middle" x="475.78" y="-378.3" font-family="Times,serif" font-size="14.00">ŷ₁</text>
</g>
<!-- β̂₀ + x₁*β̂₁, &#160;&#160;&#160;bias=False&#45;&gt;ŷ₁ -->
<g id="edge12" class="edge">
<title>β̂₀ + x₁*β̂₁, &#160;&#160;&#160;bias=False&#45;&gt;ŷ₁</title>
<path fill="none" stroke="black" d="M356.18,-382C386.07,-382 415.93,-382 438.21,-382"/>
<polygon fill="black" stroke="black" points="438.51,-385.5 448.51,-382 438.51,-378.5 438.51,-385.5"/>
<text text-anchor="middle" x="402.78" y="-385.8" font-family="Times,serif" font-size="14.00">identity</text>
</g>
<!-- x₁ -->
<g id="node15" class="node">
<title>x₁</title>
<ellipse fill="none" stroke="black" cx="27" cy="-355" rx="27" ry="18"/>
<text text-anchor="middle" x="27" y="-351.3" font-family="Times,serif" font-size="14.00">x₁</text>
</g>
<!-- x₁&#45;&gt;β̂₀ + x₁*β̂₁, &#160;&#160;&#160;bias=False -->
<g id="edge11" class="edge">
<title>x₁&#45;&gt;β̂₀ + x₁*β̂₁, &#160;&#160;&#160;bias=False</title>
<path fill="none" stroke="black" d="M53.78,-358.36C74.32,-361.04 104.47,-364.98 134.31,-368.87"/>
<polygon fill="black" stroke="black" points="134.04,-372.37 144.4,-370.19 134.94,-365.43 134.04,-372.37"/>
<text text-anchor="middle" x="84.5" y="-366.8" font-family="Times,serif" font-size="14.00">* β̂₁</text>
</g>
</g>
</svg>
