<?xml version="1.0" encoding="UTF-8" standalone="no"?>
<!DOCTYPE svg PUBLIC "-//W3C//DTD SVG 1.1//EN"
 "http://www.w3.org/Graphics/SVG/1.1/DTD/svg11.dtd">
<!-- Generated by graphviz version 3.0.0 (20220315.2325)
 -->
<!-- Title: G Pages: 1 -->
<svg width="504pt" height="98pt"
 viewBox="0.00 0.00 504.28 98.00" xmlns="http://www.w3.org/2000/svg" xmlns:xlink="http://www.w3.org/1999/xlink">
<g id="graph0" class="graph" transform="scale(1 1) rotate(0) translate(4 94)">
<title>G</title>
<polygon fill="white" stroke="transparent" points="-4,4 -4,-94 500.28,-94 500.28,4 -4,4"/>
<!-- 1 -->
<g id="node1" class="node">
<title>1</title>
<ellipse fill="none" stroke="black" cx="27" cy="-72" rx="27" ry="18"/>
<text text-anchor="middle" x="27" y="-68.3" font-family="Times,serif" font-size="14.00">1</text>
</g>
<!-- β̂₀ + x*β̂₁, &#160;&#160;&#160;bias=False -->
<g id="node2" class="node">
<title>β̂₀ + x*β̂₁, &#160;&#160;&#160;bias=False</title>
<ellipse fill="none" stroke="black" cx="232.64" cy="-45" rx="117.78" ry="18"/>
<text text-anchor="middle" x="232.64" y="-41.3" font-family="Times,serif" font-size="14.00">β̂₀ + x*β̂₁, &#160;&#160;&#160;bias=False</text>
</g>
<!-- 1&#45;&gt;β̂₀ + x*β̂₁, &#160;&#160;&#160;bias=False -->
<g id="edge1" class="edge">
<title>1&#45;&gt;β̂₀ + x*β̂₁, &#160;&#160;&#160;bias=False</title>
<path fill="none" stroke="black" d="M53.79,-68.58C73.99,-65.9 103.47,-61.99 132.64,-58.13"/>
<polygon fill="black" stroke="black" points="133.47,-61.55 142.92,-56.76 132.55,-54.61 133.47,-61.55"/>
<text text-anchor="middle" x="84.5" y="-68.8" font-family="Times,serif" font-size="14.00">* β̂₀</text>
</g>
<!-- ŷ -->
<g id="node4" class="node">
<title>ŷ</title>
<ellipse fill="none" stroke="black" cx="469.28" cy="-45" rx="27" ry="18"/>
<text text-anchor="middle" x="469.28" y="-41.3" font-family="Times,serif" font-size="14.00">ŷ</text>
</g>
<!-- β̂₀ + x*β̂₁, &#160;&#160;&#160;bias=False&#45;&gt;ŷ -->
<g id="edge3" class="edge">
<title>β̂₀ + x*β̂₁, &#160;&#160;&#160;bias=False&#45;&gt;ŷ</title>
<path fill="none" stroke="black" d="M350.62,-45C380.21,-45 409.84,-45 431.96,-45"/>
<polygon fill="black" stroke="black" points="432.18,-48.5 442.18,-45 432.18,-41.5 432.18,-48.5"/>
<text text-anchor="middle" x="396.28" y="-48.8" font-family="Times,serif" font-size="14.00">identity</text>
</g>
<!-- x -->
<g id="node3" class="node">
<title>x</title>
<ellipse fill="none" stroke="black" cx="27" cy="-18" rx="27" ry="18"/>
<text text-anchor="middle" x="27" y="-14.3" font-family="Times,serif" font-size="14.00">x</text>
</g>
<!-- x&#45;&gt;β̂₀ + x*β̂₁, &#160;&#160;&#160;bias=False -->
<g id="edge2" class="edge">
<title>x&#45;&gt;β̂₀ + x*β̂₁, &#160;&#160;&#160;bias=False</title>
<path fill="none" stroke="black" d="M53.79,-21.42C73.99,-24.1 103.47,-28.01 132.64,-31.87"/>
<polygon fill="black" stroke="black" points="132.55,-35.39 142.92,-33.24 133.47,-28.45 132.55,-35.39"/>
<text text-anchor="middle" x="84.5" y="-29.8" font-family="Times,serif" font-size="14.00">* β̂₁</text>
</g>
</g>
</svg>
