<?xml version="1.0" encoding="UTF-8" standalone="no"?>
<!DOCTYPE svg PUBLIC "-//W3C//DTD SVG 1.1//EN"
 "http://www.w3.org/Graphics/SVG/1.1/DTD/svg11.dtd">
<!-- Generated by graphviz version 2.50.0 (0)
 -->
<!-- Title: G Pages: 1 -->
<svg width="726pt" height="98pt"
 viewBox="0.00 0.00 725.56 98.00" xmlns="http://www.w3.org/2000/svg" xmlns:xlink="http://www.w3.org/1999/xlink">
<g id="graph0" class="graph" transform="scale(1 1) rotate(0) translate(4 94)">
<title>G</title>
<polygon fill="white" stroke="transparent" points="-4,4 -4,-94 721.56,-94 721.56,4 -4,4"/>
<!-- 1 -->
<g id="node1" class="node">
<title>1</title>
<ellipse fill="none" stroke="black" cx="27" cy="-72" rx="27" ry="18"/>
<text text-anchor="middle" x="27" y="-68.3" font-family="Times,serif" font-size="14.00">1</text>
</g>
<!-- beta0_hat + x*beta1_hat, &#160;&#160;&#160;bias=False -->
<g id="node2" class="node">
<title>beta0_hat + x*beta1_hat, &#160;&#160;&#160;bias=False</title>
<ellipse fill="none" stroke="black" cx="363.08" cy="-45" rx="191.17" ry="18"/>
<text text-anchor="middle" x="363.08" y="-41.3" font-family="Times,serif" font-size="14.00">beta0_hat + x*beta1_hat, &#160;&#160;&#160;bias=False</text>
</g>
<!-- 1&#45;&gt;beta0_hat + x*beta1_hat, &#160;&#160;&#160;bias=False -->
<g id="edge1" class="edge">
<title>1&#45;&gt;beta0_hat + x*beta1_hat, &#160;&#160;&#160;bias=False</title>
<path fill="none" stroke="black" d="M53.94,-69.9C87.41,-67.2 148.39,-62.27 207.31,-57.51"/>
<polygon fill="black" stroke="black" points="207.83,-60.98 217.51,-56.68 207.26,-54 207.83,-60.98"/>
<text text-anchor="middle" x="113" y="-71.8" font-family="Times,serif" font-size="14.00">* beta0_hat</text>
</g>
<!-- yhat -->
<g id="node4" class="node">
<title>yhat</title>
<ellipse fill="none" stroke="black" cx="686.36" cy="-45" rx="31.4" ry="18"/>
<text text-anchor="middle" x="686.36" y="-41.3" font-family="Times,serif" font-size="14.00">yhat</text>
</g>
<!-- beta0_hat + x*beta1_hat, &#160;&#160;&#160;bias=False&#45;&gt;yhat -->
<g id="edge3" class="edge">
<title>beta0_hat + x*beta1_hat, &#160;&#160;&#160;bias=False&#45;&gt;yhat</title>
<path fill="none" stroke="black" d="M554.22,-45C588.45,-45 620.83,-45 644.85,-45"/>
<polygon fill="black" stroke="black" points="644.94,-48.5 654.94,-45 644.94,-41.5 644.94,-48.5"/>
<text text-anchor="middle" x="604.67" y="-48.8" font-family="Times,serif" font-size="14.00">indentity</text>
</g>
<!-- x -->
<g id="node3" class="node">
<title>x</title>
<ellipse fill="none" stroke="black" cx="27" cy="-18" rx="27" ry="18"/>
<text text-anchor="middle" x="27" y="-14.3" font-family="Times,serif" font-size="14.00">x</text>
</g>
<!-- x&#45;&gt;beta0_hat + x*beta1_hat, &#160;&#160;&#160;bias=False -->
<g id="edge2" class="edge">
<title>x&#45;&gt;beta0_hat + x*beta1_hat, &#160;&#160;&#160;bias=False</title>
<path fill="none" stroke="black" d="M53.94,-20.1C87.41,-22.8 148.39,-27.73 207.31,-32.49"/>
<polygon fill="black" stroke="black" points="207.26,-36 217.51,-33.32 207.83,-29.02 207.26,-36"/>
<text text-anchor="middle" x="113" y="-30.8" font-family="Times,serif" font-size="14.00">* beta1_hat</text>
</g>
</g>
</svg>
